G04 #@! TF.GenerationSoftware,KiCad,Pcbnew,7.0.11-7.0.11~ubuntu20.04.1*
G04 #@! TF.CreationDate,2024-08-22T00:47:31+02:00*
G04 #@! TF.ProjectId,kicad-pmod-semaphore,6b696361-642d-4706-9d6f-642d73656d61,1.0*
G04 #@! TF.SameCoordinates,Original*
G04 #@! TF.FileFunction,Copper,L2,Bot*
G04 #@! TF.FilePolarity,Positive*
%FSLAX46Y46*%
G04 Gerber Fmt 4.6, Leading zero omitted, Abs format (unit mm)*
G04 Created by KiCad (PCBNEW 7.0.11-7.0.11~ubuntu20.04.1) date 2024-08-22 00:47:31*
%MOMM*%
%LPD*%
G01*
G04 APERTURE LIST*
G04 Aperture macros list*
%AMRoundRect*
0 Rectangle with rounded corners*
0 $1 Rounding radius*
0 $2 $3 $4 $5 $6 $7 $8 $9 X,Y pos of 4 corners*
0 Add a 4 corners polygon primitive as box body*
4,1,4,$2,$3,$4,$5,$6,$7,$8,$9,$2,$3,0*
0 Add four circle primitives for the rounded corners*
1,1,$1+$1,$2,$3*
1,1,$1+$1,$4,$5*
1,1,$1+$1,$6,$7*
1,1,$1+$1,$8,$9*
0 Add four rect primitives between the rounded corners*
20,1,$1+$1,$2,$3,$4,$5,0*
20,1,$1+$1,$4,$5,$6,$7,0*
20,1,$1+$1,$6,$7,$8,$9,0*
20,1,$1+$1,$8,$9,$2,$3,0*%
G04 Aperture macros list end*
G04 #@! TA.AperFunction,ComponentPad*
%ADD10C,2.000000*%
G04 #@! TD*
G04 #@! TA.AperFunction,SMDPad,CuDef*
%ADD11RoundRect,0.237500X-0.237500X0.250000X-0.237500X-0.250000X0.237500X-0.250000X0.237500X0.250000X0*%
G04 #@! TD*
G04 #@! TA.AperFunction,SMDPad,CuDef*
%ADD12RoundRect,0.237500X0.250000X0.237500X-0.250000X0.237500X-0.250000X-0.237500X0.250000X-0.237500X0*%
G04 #@! TD*
G04 #@! TA.AperFunction,ComponentPad*
%ADD13R,1.700000X1.700000*%
G04 #@! TD*
G04 #@! TA.AperFunction,ComponentPad*
%ADD14O,1.700000X1.700000*%
G04 #@! TD*
G04 #@! TA.AperFunction,ComponentPad*
%ADD15R,1.800000X1.800000*%
G04 #@! TD*
G04 #@! TA.AperFunction,ComponentPad*
%ADD16C,1.800000*%
G04 #@! TD*
G04 #@! TA.AperFunction,ViaPad*
%ADD17C,0.800000*%
G04 #@! TD*
G04 #@! TA.AperFunction,Conductor*
%ADD18C,0.250000*%
G04 #@! TD*
G04 APERTURE END LIST*
D10*
X120090000Y-86015000D03*
X113590000Y-86015000D03*
X120090000Y-90515000D03*
X113590000Y-90515000D03*
X120090000Y-74585000D03*
X113590000Y-74585000D03*
X120090000Y-79085000D03*
X113590000Y-79085000D03*
X120090000Y-65695000D03*
X113590000Y-65695000D03*
X120090000Y-70195000D03*
X113590000Y-70195000D03*
X120090000Y-56805000D03*
X113590000Y-56805000D03*
X120090000Y-61305000D03*
X113590000Y-61305000D03*
D11*
X125730000Y-83900000D03*
X125730000Y-85725000D03*
X125730000Y-72470000D03*
X125730000Y-74295000D03*
X125730000Y-63580000D03*
X125730000Y-65405000D03*
X125730000Y-54690000D03*
X125730000Y-56515000D03*
D12*
X116125000Y-88265000D03*
X114300000Y-88265000D03*
X116125000Y-76835000D03*
X114300000Y-76835000D03*
X116125000Y-67945000D03*
X114300000Y-67945000D03*
X116125000Y-59055000D03*
X114300000Y-59055000D03*
X119935000Y-88265000D03*
X118110000Y-88265000D03*
X119935000Y-76835000D03*
X118110000Y-76835000D03*
X119935000Y-67945000D03*
X118110000Y-67945000D03*
X119935000Y-59055000D03*
X118110000Y-59055000D03*
D13*
X127000000Y-50800000D03*
D14*
X127000000Y-48260000D03*
X124460000Y-50800000D03*
X124460000Y-48260000D03*
X121920000Y-50800000D03*
X121920000Y-48260000D03*
X119380000Y-50800000D03*
X119380000Y-48260000D03*
X116840000Y-50800000D03*
X116840000Y-48260000D03*
X114300000Y-50800000D03*
X114300000Y-48260000D03*
D15*
X128270000Y-88265000D03*
D16*
X125730000Y-88265000D03*
D15*
X128270000Y-76835000D03*
D16*
X125730000Y-76835000D03*
D15*
X128270000Y-67945000D03*
D16*
X125730000Y-67945000D03*
X125730000Y-59055000D03*
D15*
X128270000Y-59055000D03*
D17*
X121920000Y-88265000D03*
X121920000Y-76835000D03*
X121920000Y-67945000D03*
X121920000Y-59055000D03*
D18*
X119935000Y-88265000D02*
X121920000Y-88265000D01*
X119935000Y-76835000D02*
X121920000Y-76835000D01*
X119935000Y-67945000D02*
X121920000Y-67945000D01*
X119935000Y-59055000D02*
X121285000Y-59055000D01*
X121285000Y-59055000D02*
X121920000Y-59055000D01*
X113590000Y-86015000D02*
X120090000Y-86015000D01*
X113590000Y-74585000D02*
X120090000Y-74585000D01*
X113590000Y-65695000D02*
X120090000Y-65695000D01*
X113590000Y-56805000D02*
X120090000Y-56805000D01*
X125730000Y-83900000D02*
X123190000Y-81360000D01*
X123190000Y-81360000D02*
X123190000Y-53340000D01*
X123190000Y-53340000D02*
X122555000Y-52705000D01*
X122555000Y-52705000D02*
X121285000Y-52705000D01*
X121285000Y-52705000D02*
X119380000Y-50800000D01*
X125730000Y-72470000D02*
X123825000Y-70565000D01*
X123825000Y-70565000D02*
X123825000Y-52705000D01*
X123825000Y-52705000D02*
X121920000Y-50800000D01*
X125730000Y-63580000D02*
X124460000Y-62310000D01*
X124460000Y-62310000D02*
X124460000Y-50800000D01*
X126285000Y-54690000D02*
X127000000Y-53975000D01*
X125730000Y-54690000D02*
X126285000Y-54690000D01*
X127000000Y-53975000D02*
X127000000Y-50800000D01*
X116125000Y-60880000D02*
X116205000Y-60960000D01*
X116125000Y-59055000D02*
X116125000Y-60880000D01*
X116205000Y-60960000D02*
X115860000Y-61305000D01*
X115860000Y-61305000D02*
X113590000Y-61305000D01*
X116125000Y-67945000D02*
X118110000Y-67945000D01*
X116125000Y-69770000D02*
X116205000Y-69850000D01*
X116125000Y-67945000D02*
X116125000Y-69770000D01*
X115860000Y-70195000D02*
X113590000Y-70195000D01*
X116205000Y-69850000D02*
X115860000Y-70195000D01*
X118110000Y-67945000D02*
X118110000Y-69850000D01*
X118110000Y-69850000D02*
X118455000Y-70195000D01*
X118455000Y-70195000D02*
X120090000Y-70195000D01*
X118110000Y-76835000D02*
X116125000Y-76835000D01*
X118110000Y-88265000D02*
X116125000Y-88265000D01*
X118110000Y-88265000D02*
X118110000Y-90170000D01*
X118110000Y-90170000D02*
X118455000Y-90515000D01*
X118455000Y-90515000D02*
X120090000Y-90515000D01*
X116125000Y-90090000D02*
X116205000Y-90170000D01*
X116205000Y-90170000D02*
X115860000Y-90515000D01*
X115860000Y-90515000D02*
X113590000Y-90515000D01*
X116125000Y-88265000D02*
X116125000Y-90090000D01*
X118110000Y-76835000D02*
X118110000Y-78740000D01*
X118110000Y-78740000D02*
X118455000Y-79085000D01*
X118455000Y-79085000D02*
X120090000Y-79085000D01*
X116125000Y-78660000D02*
X116205000Y-78740000D01*
X116125000Y-76835000D02*
X116125000Y-78660000D01*
X116205000Y-78740000D02*
X115860000Y-79085000D01*
X115860000Y-79085000D02*
X113590000Y-79085000D01*
X116125000Y-59055000D02*
X118110000Y-59055000D01*
X118455000Y-61305000D02*
X118110000Y-60960000D01*
X118110000Y-60960000D02*
X118110000Y-59055000D01*
X120090000Y-61305000D02*
X118455000Y-61305000D01*
X125730000Y-85725000D02*
X125730000Y-88265000D01*
X125730000Y-74295000D02*
X125730000Y-76835000D01*
X125730000Y-65405000D02*
X125730000Y-67945000D01*
X125730000Y-59055000D02*
X125730000Y-56515000D01*
G04 #@! TA.AperFunction,Conductor*
G36*
X117090000Y-50364498D02*
G01*
X116982315Y-50315320D01*
X116875763Y-50300000D01*
X116804237Y-50300000D01*
X116697685Y-50315320D01*
X116590000Y-50364498D01*
X116590000Y-48695501D01*
X116697685Y-48744680D01*
X116804237Y-48760000D01*
X116875763Y-48760000D01*
X116982315Y-48744680D01*
X117090000Y-48695501D01*
X117090000Y-50364498D01*
G37*
G04 #@! TD.AperFunction*
G04 #@! TA.AperFunction,Conductor*
G36*
X130181912Y-44451278D02*
G01*
X130200299Y-44453350D01*
X130202404Y-44453607D01*
X130313499Y-44468233D01*
X130338249Y-44474126D01*
X130380803Y-44489017D01*
X130387255Y-44491480D01*
X130460533Y-44521833D01*
X130479028Y-44531387D01*
X130521975Y-44558372D01*
X130531481Y-44564985D01*
X130590274Y-44610098D01*
X130602469Y-44620793D01*
X130639205Y-44657529D01*
X130649900Y-44669724D01*
X130695013Y-44728517D01*
X130701630Y-44738029D01*
X130728607Y-44780962D01*
X130738172Y-44799478D01*
X130768510Y-44872722D01*
X130770990Y-44879219D01*
X130785869Y-44921740D01*
X130791767Y-44946510D01*
X130806381Y-45057517D01*
X130806661Y-45059801D01*
X130808720Y-45078085D01*
X130809500Y-45091959D01*
X130809500Y-99053039D01*
X130808721Y-99066915D01*
X130807239Y-99080065D01*
X130806662Y-99085186D01*
X130806381Y-99087481D01*
X130791767Y-99198488D01*
X130785869Y-99223258D01*
X130770990Y-99265779D01*
X130768510Y-99272276D01*
X130738172Y-99345520D01*
X130728604Y-99364042D01*
X130701630Y-99406969D01*
X130695013Y-99416481D01*
X130649900Y-99475274D01*
X130639205Y-99487469D01*
X130602469Y-99524205D01*
X130590274Y-99534900D01*
X130531481Y-99580013D01*
X130521969Y-99586630D01*
X130479042Y-99613604D01*
X130460520Y-99623172D01*
X130387276Y-99653510D01*
X130380779Y-99655990D01*
X130338258Y-99670869D01*
X130313488Y-99676767D01*
X130202481Y-99691381D01*
X130200187Y-99691662D01*
X130197503Y-99691964D01*
X130181914Y-99693720D01*
X130168040Y-99694500D01*
X111131960Y-99694500D01*
X111118083Y-99693720D01*
X111103203Y-99692044D01*
X111099813Y-99691662D01*
X111097517Y-99691381D01*
X110986510Y-99676767D01*
X110961740Y-99670869D01*
X110919219Y-99655990D01*
X110912722Y-99653510D01*
X110862748Y-99632810D01*
X110839475Y-99623170D01*
X110820962Y-99613607D01*
X110778029Y-99586630D01*
X110768517Y-99580013D01*
X110709724Y-99534900D01*
X110697529Y-99524205D01*
X110660793Y-99487469D01*
X110650098Y-99475274D01*
X110604985Y-99416481D01*
X110598368Y-99406969D01*
X110571387Y-99364028D01*
X110561833Y-99345533D01*
X110531480Y-99272255D01*
X110529017Y-99265803D01*
X110514126Y-99223249D01*
X110508233Y-99198499D01*
X110493607Y-99087404D01*
X110493350Y-99085299D01*
X110491278Y-99066912D01*
X110490500Y-99053037D01*
X110490500Y-96009334D01*
X112799500Y-96009334D01*
X112840429Y-96254616D01*
X112921169Y-96489802D01*
X112921172Y-96489811D01*
X113039524Y-96708506D01*
X113039526Y-96708509D01*
X113192262Y-96904744D01*
X113351744Y-97051557D01*
X113375217Y-97073166D01*
X113583393Y-97209173D01*
X113811118Y-97309063D01*
X114052175Y-97370107D01*
X114052179Y-97370108D01*
X114052181Y-97370108D01*
X114052186Y-97370109D01*
X114205589Y-97382819D01*
X114237933Y-97385500D01*
X114237937Y-97385500D01*
X114362063Y-97385500D01*
X114362067Y-97385500D01*
X114424677Y-97380311D01*
X114547813Y-97370109D01*
X114547816Y-97370108D01*
X114547821Y-97370108D01*
X114788881Y-97309063D01*
X115016607Y-97209173D01*
X115224785Y-97073164D01*
X115407738Y-96904744D01*
X115560474Y-96708509D01*
X115678828Y-96489810D01*
X115759571Y-96254614D01*
X115800500Y-96009335D01*
X115800500Y-96009334D01*
X125499500Y-96009334D01*
X125540429Y-96254616D01*
X125621169Y-96489802D01*
X125621172Y-96489811D01*
X125739524Y-96708506D01*
X125739526Y-96708509D01*
X125892262Y-96904744D01*
X126051744Y-97051557D01*
X126075217Y-97073166D01*
X126283393Y-97209173D01*
X126511118Y-97309063D01*
X126752175Y-97370107D01*
X126752179Y-97370108D01*
X126752181Y-97370108D01*
X126752186Y-97370109D01*
X126905589Y-97382819D01*
X126937933Y-97385500D01*
X126937937Y-97385500D01*
X127062063Y-97385500D01*
X127062067Y-97385500D01*
X127124677Y-97380311D01*
X127247813Y-97370109D01*
X127247816Y-97370108D01*
X127247821Y-97370108D01*
X127488881Y-97309063D01*
X127716607Y-97209173D01*
X127924785Y-97073164D01*
X128107738Y-96904744D01*
X128260474Y-96708509D01*
X128378828Y-96489810D01*
X128459571Y-96254614D01*
X128500500Y-96009335D01*
X128500500Y-95760665D01*
X128459571Y-95515386D01*
X128378828Y-95280190D01*
X128260474Y-95061491D01*
X128107738Y-94865256D01*
X127924785Y-94696836D01*
X127924782Y-94696833D01*
X127716606Y-94560826D01*
X127488881Y-94460936D01*
X127247824Y-94399892D01*
X127247813Y-94399890D01*
X127062077Y-94384500D01*
X127062067Y-94384500D01*
X126937933Y-94384500D01*
X126937922Y-94384500D01*
X126752186Y-94399890D01*
X126752175Y-94399892D01*
X126511118Y-94460936D01*
X126283393Y-94560826D01*
X126075217Y-94696833D01*
X125892261Y-94865257D01*
X125739524Y-95061493D01*
X125621172Y-95280188D01*
X125621169Y-95280197D01*
X125540429Y-95515383D01*
X125499500Y-95760665D01*
X125499500Y-96009334D01*
X115800500Y-96009334D01*
X115800500Y-95760665D01*
X115759571Y-95515386D01*
X115678828Y-95280190D01*
X115560474Y-95061491D01*
X115407738Y-94865256D01*
X115224785Y-94696836D01*
X115224782Y-94696833D01*
X115016606Y-94560826D01*
X114788881Y-94460936D01*
X114547824Y-94399892D01*
X114547813Y-94399890D01*
X114362077Y-94384500D01*
X114362067Y-94384500D01*
X114237933Y-94384500D01*
X114237922Y-94384500D01*
X114052186Y-94399890D01*
X114052175Y-94399892D01*
X113811118Y-94460936D01*
X113583393Y-94560826D01*
X113375217Y-94696833D01*
X113192261Y-94865257D01*
X113039524Y-95061493D01*
X112921172Y-95280188D01*
X112921169Y-95280197D01*
X112840429Y-95515383D01*
X112799500Y-95760665D01*
X112799500Y-96009334D01*
X110490500Y-96009334D01*
X110490500Y-90515005D01*
X112084357Y-90515005D01*
X112104890Y-90762812D01*
X112104892Y-90762824D01*
X112165936Y-91003881D01*
X112265826Y-91231606D01*
X112401833Y-91439782D01*
X112401836Y-91439785D01*
X112570256Y-91622738D01*
X112766491Y-91775474D01*
X112985190Y-91893828D01*
X113220386Y-91974571D01*
X113465665Y-92015500D01*
X113714335Y-92015500D01*
X113959614Y-91974571D01*
X114194810Y-91893828D01*
X114413509Y-91775474D01*
X114609744Y-91622738D01*
X114778164Y-91439785D01*
X114914173Y-91231607D01*
X114914175Y-91231603D01*
X114921595Y-91214689D01*
X114966551Y-91161203D01*
X115033287Y-91140514D01*
X115035150Y-91140500D01*
X115777257Y-91140500D01*
X115792877Y-91142224D01*
X115792904Y-91141939D01*
X115800660Y-91142671D01*
X115800667Y-91142673D01*
X115867873Y-91140561D01*
X115871768Y-91140500D01*
X115899346Y-91140500D01*
X115899350Y-91140500D01*
X115903324Y-91139997D01*
X115914963Y-91139080D01*
X115958627Y-91137709D01*
X115977869Y-91132117D01*
X115996912Y-91128174D01*
X116016792Y-91125664D01*
X116057401Y-91109585D01*
X116068444Y-91105803D01*
X116110390Y-91093618D01*
X116127629Y-91083422D01*
X116145103Y-91074862D01*
X116163727Y-91067488D01*
X116163727Y-91067487D01*
X116163732Y-91067486D01*
X116199083Y-91041800D01*
X116208814Y-91035408D01*
X116246420Y-91013170D01*
X116260589Y-90998999D01*
X116275379Y-90986368D01*
X116291587Y-90974594D01*
X116319438Y-90940926D01*
X116327279Y-90932309D01*
X116597196Y-90662392D01*
X116615179Y-90647516D01*
X116621938Y-90642924D01*
X116658639Y-90601292D01*
X116663928Y-90595661D01*
X116675120Y-90584470D01*
X116684811Y-90571975D01*
X116689749Y-90566005D01*
X116726450Y-90524378D01*
X116730157Y-90517101D01*
X116742665Y-90497393D01*
X116747674Y-90490936D01*
X116769724Y-90439979D01*
X116773009Y-90432996D01*
X116798197Y-90383565D01*
X116799976Y-90375602D01*
X116807189Y-90353401D01*
X116810438Y-90345895D01*
X116819120Y-90291071D01*
X116820575Y-90283453D01*
X116832671Y-90229337D01*
X116832672Y-90229333D01*
X116832415Y-90221170D01*
X116833882Y-90197871D01*
X116835160Y-90189804D01*
X116829938Y-90134562D01*
X116829450Y-90126801D01*
X116828943Y-90110667D01*
X116827709Y-90071373D01*
X116825428Y-90063523D01*
X116821055Y-90040601D01*
X116820287Y-90032467D01*
X116801501Y-89980286D01*
X116799093Y-89972877D01*
X116783618Y-89919611D01*
X116783618Y-89919610D01*
X116779460Y-89912580D01*
X116769523Y-89891464D01*
X116766754Y-89883771D01*
X116766750Y-89883765D01*
X116766749Y-89883762D01*
X116764012Y-89878388D01*
X116750500Y-89822100D01*
X116750500Y-89207191D01*
X116770185Y-89140152D01*
X116809404Y-89101652D01*
X116812099Y-89099989D01*
X116835850Y-89085340D01*
X116957840Y-88963350D01*
X116966442Y-88949404D01*
X117018390Y-88902679D01*
X117071981Y-88890500D01*
X117163019Y-88890500D01*
X117230058Y-88910185D01*
X117268558Y-88949404D01*
X117277159Y-88963348D01*
X117277160Y-88963350D01*
X117399150Y-89085340D01*
X117425596Y-89101652D01*
X117472321Y-89153600D01*
X117484500Y-89207191D01*
X117484500Y-90087255D01*
X117482775Y-90102872D01*
X117483061Y-90102899D01*
X117482326Y-90110665D01*
X117484439Y-90177872D01*
X117484500Y-90181767D01*
X117484500Y-90209357D01*
X117485003Y-90213335D01*
X117485918Y-90224967D01*
X117487290Y-90268624D01*
X117487291Y-90268627D01*
X117492880Y-90287867D01*
X117496824Y-90306911D01*
X117499336Y-90326792D01*
X117515414Y-90367403D01*
X117519197Y-90378452D01*
X117531381Y-90420388D01*
X117541580Y-90437634D01*
X117550138Y-90455103D01*
X117557514Y-90473732D01*
X117583181Y-90509060D01*
X117589593Y-90518821D01*
X117611828Y-90556417D01*
X117611833Y-90556424D01*
X117625990Y-90570580D01*
X117638628Y-90585376D01*
X117650405Y-90601586D01*
X117650406Y-90601587D01*
X117684057Y-90629425D01*
X117692698Y-90637288D01*
X117954194Y-90898784D01*
X117964019Y-90911048D01*
X117964240Y-90910866D01*
X117969210Y-90916874D01*
X118018239Y-90962915D01*
X118021036Y-90965626D01*
X118040530Y-90985120D01*
X118043695Y-90987575D01*
X118052571Y-90995156D01*
X118084418Y-91025062D01*
X118084422Y-91025064D01*
X118101973Y-91034713D01*
X118118231Y-91045392D01*
X118134064Y-91057674D01*
X118169410Y-91072968D01*
X118174155Y-91075022D01*
X118184635Y-91080155D01*
X118222908Y-91101197D01*
X118242312Y-91106179D01*
X118260710Y-91112478D01*
X118279105Y-91120438D01*
X118322254Y-91127271D01*
X118333680Y-91129638D01*
X118375981Y-91140500D01*
X118396016Y-91140500D01*
X118415413Y-91142026D01*
X118435196Y-91145160D01*
X118478675Y-91141050D01*
X118490344Y-91140500D01*
X118644850Y-91140500D01*
X118711889Y-91160185D01*
X118757644Y-91212989D01*
X118758405Y-91214689D01*
X118765824Y-91231603D01*
X118901833Y-91439782D01*
X118901836Y-91439785D01*
X119070256Y-91622738D01*
X119266491Y-91775474D01*
X119485190Y-91893828D01*
X119720386Y-91974571D01*
X119965665Y-92015500D01*
X120214335Y-92015500D01*
X120459614Y-91974571D01*
X120694810Y-91893828D01*
X120913509Y-91775474D01*
X121109744Y-91622738D01*
X121278164Y-91439785D01*
X121414173Y-91231607D01*
X121514063Y-91003881D01*
X121575108Y-90762821D01*
X121575109Y-90762812D01*
X121595643Y-90515005D01*
X121595643Y-90514994D01*
X121575109Y-90267187D01*
X121575107Y-90267175D01*
X121514063Y-90026118D01*
X121414173Y-89798393D01*
X121278166Y-89590217D01*
X121256557Y-89566744D01*
X121109744Y-89407262D01*
X120913509Y-89254526D01*
X120913508Y-89254525D01*
X120913505Y-89254523D01*
X120913503Y-89254522D01*
X120776311Y-89180278D01*
X120726720Y-89131058D01*
X120711612Y-89062842D01*
X120735782Y-88997286D01*
X120747635Y-88983554D01*
X120767840Y-88963350D01*
X120776442Y-88949404D01*
X120828390Y-88902679D01*
X120881981Y-88890500D01*
X121216252Y-88890500D01*
X121283291Y-88910185D01*
X121308400Y-88931526D01*
X121314126Y-88937885D01*
X121314130Y-88937889D01*
X121467265Y-89049148D01*
X121467270Y-89049151D01*
X121640192Y-89126142D01*
X121640197Y-89126144D01*
X121825354Y-89165500D01*
X121825355Y-89165500D01*
X122014644Y-89165500D01*
X122014646Y-89165500D01*
X122199803Y-89126144D01*
X122372730Y-89049151D01*
X122525871Y-88937888D01*
X122652533Y-88797216D01*
X122747179Y-88633284D01*
X122805674Y-88453256D01*
X122825460Y-88265000D01*
X122805674Y-88076744D01*
X122747179Y-87896716D01*
X122652533Y-87732784D01*
X122525871Y-87592112D01*
X122525870Y-87592111D01*
X122372734Y-87480851D01*
X122372729Y-87480848D01*
X122199807Y-87403857D01*
X122199802Y-87403855D01*
X122050830Y-87372191D01*
X122014646Y-87364500D01*
X121825354Y-87364500D01*
X121792897Y-87371398D01*
X121640197Y-87403855D01*
X121640192Y-87403857D01*
X121467270Y-87480848D01*
X121467265Y-87480851D01*
X121314130Y-87592110D01*
X121314126Y-87592114D01*
X121308400Y-87598474D01*
X121248913Y-87635121D01*
X121216252Y-87639500D01*
X120881981Y-87639500D01*
X120814942Y-87619815D01*
X120776442Y-87580596D01*
X120775408Y-87578920D01*
X120767840Y-87566650D01*
X120747647Y-87546457D01*
X120714162Y-87485134D01*
X120719146Y-87415442D01*
X120761018Y-87359509D01*
X120776302Y-87349726D01*
X120913509Y-87275474D01*
X121109744Y-87122738D01*
X121278164Y-86939785D01*
X121414173Y-86731607D01*
X121514063Y-86503881D01*
X121575108Y-86262821D01*
X121575109Y-86262812D01*
X121595643Y-86015005D01*
X121595643Y-86014994D01*
X121575109Y-85767187D01*
X121575107Y-85767175D01*
X121514063Y-85526118D01*
X121414173Y-85298393D01*
X121278166Y-85090217D01*
X121208139Y-85014148D01*
X121109744Y-84907262D01*
X120913509Y-84754526D01*
X120913507Y-84754525D01*
X120913506Y-84754524D01*
X120694811Y-84636172D01*
X120694802Y-84636169D01*
X120459616Y-84555429D01*
X120214335Y-84514500D01*
X119965665Y-84514500D01*
X119720383Y-84555429D01*
X119485197Y-84636169D01*
X119485188Y-84636172D01*
X119266493Y-84754524D01*
X119070257Y-84907261D01*
X118901833Y-85090217D01*
X118765824Y-85298396D01*
X118758405Y-85315311D01*
X118713449Y-85368797D01*
X118646713Y-85389486D01*
X118644850Y-85389500D01*
X115035150Y-85389500D01*
X114968111Y-85369815D01*
X114922356Y-85317011D01*
X114921595Y-85315311D01*
X114914175Y-85298396D01*
X114778166Y-85090217D01*
X114708139Y-85014148D01*
X114609744Y-84907262D01*
X114413509Y-84754526D01*
X114413507Y-84754525D01*
X114413506Y-84754524D01*
X114194811Y-84636172D01*
X114194802Y-84636169D01*
X113959616Y-84555429D01*
X113714335Y-84514500D01*
X113465665Y-84514500D01*
X113220383Y-84555429D01*
X112985197Y-84636169D01*
X112985188Y-84636172D01*
X112766493Y-84754524D01*
X112570257Y-84907261D01*
X112401833Y-85090217D01*
X112265826Y-85298393D01*
X112165936Y-85526118D01*
X112104892Y-85767175D01*
X112104890Y-85767187D01*
X112084357Y-86014994D01*
X112084357Y-86015005D01*
X112104890Y-86262812D01*
X112104892Y-86262824D01*
X112165936Y-86503881D01*
X112265826Y-86731606D01*
X112401833Y-86939782D01*
X112401836Y-86939785D01*
X112570256Y-87122738D01*
X112766491Y-87275474D01*
X112985190Y-87393828D01*
X113220386Y-87474571D01*
X113314166Y-87490219D01*
X113377051Y-87520669D01*
X113413491Y-87580283D01*
X113411917Y-87650135D01*
X113399297Y-87677623D01*
X113377049Y-87713692D01*
X113377046Y-87713699D01*
X113322819Y-87877347D01*
X113312500Y-87978345D01*
X113312500Y-88015000D01*
X114426000Y-88015000D01*
X114493039Y-88034685D01*
X114538794Y-88087489D01*
X114550000Y-88139000D01*
X114550000Y-88391000D01*
X114530315Y-88458039D01*
X114477511Y-88503794D01*
X114426000Y-88515000D01*
X113312501Y-88515000D01*
X113312501Y-88551654D01*
X113322819Y-88652652D01*
X113377046Y-88816300D01*
X113377050Y-88816309D01*
X113399296Y-88852375D01*
X113417736Y-88919767D01*
X113396813Y-88986431D01*
X113343171Y-89031200D01*
X113314166Y-89039780D01*
X113220383Y-89055429D01*
X112985197Y-89136169D01*
X112985188Y-89136172D01*
X112766493Y-89254524D01*
X112570257Y-89407261D01*
X112401833Y-89590217D01*
X112265826Y-89798393D01*
X112165936Y-90026118D01*
X112104892Y-90267175D01*
X112104890Y-90267187D01*
X112084357Y-90514994D01*
X112084357Y-90515005D01*
X110490500Y-90515005D01*
X110490500Y-79085005D01*
X112084357Y-79085005D01*
X112104890Y-79332812D01*
X112104892Y-79332824D01*
X112165936Y-79573881D01*
X112265826Y-79801606D01*
X112401833Y-80009782D01*
X112401836Y-80009785D01*
X112570256Y-80192738D01*
X112766491Y-80345474D01*
X112985190Y-80463828D01*
X113220386Y-80544571D01*
X113465665Y-80585500D01*
X113714335Y-80585500D01*
X113959614Y-80544571D01*
X114194810Y-80463828D01*
X114413509Y-80345474D01*
X114609744Y-80192738D01*
X114778164Y-80009785D01*
X114914173Y-79801607D01*
X114914175Y-79801603D01*
X114921595Y-79784689D01*
X114966551Y-79731203D01*
X115033287Y-79710514D01*
X115035150Y-79710500D01*
X115777257Y-79710500D01*
X115792877Y-79712224D01*
X115792904Y-79711939D01*
X115800660Y-79712671D01*
X115800667Y-79712673D01*
X115867873Y-79710561D01*
X115871768Y-79710500D01*
X115899346Y-79710500D01*
X115899350Y-79710500D01*
X115903324Y-79709997D01*
X115914963Y-79709080D01*
X115958627Y-79707709D01*
X115977869Y-79702117D01*
X115996912Y-79698174D01*
X116016792Y-79695664D01*
X116057401Y-79679585D01*
X116068444Y-79675803D01*
X116110390Y-79663618D01*
X116127629Y-79653422D01*
X116145103Y-79644862D01*
X116163727Y-79637488D01*
X116163727Y-79637487D01*
X116163732Y-79637486D01*
X116199083Y-79611800D01*
X116208814Y-79605408D01*
X116246420Y-79583170D01*
X116260589Y-79568999D01*
X116275379Y-79556368D01*
X116291587Y-79544594D01*
X116319438Y-79510926D01*
X116327279Y-79502309D01*
X116597196Y-79232392D01*
X116615179Y-79217516D01*
X116621938Y-79212924D01*
X116658639Y-79171292D01*
X116663928Y-79165661D01*
X116675120Y-79154470D01*
X116684811Y-79141975D01*
X116689749Y-79136005D01*
X116726450Y-79094378D01*
X116730157Y-79087101D01*
X116742665Y-79067393D01*
X116747674Y-79060936D01*
X116769724Y-79009979D01*
X116773009Y-79002996D01*
X116798197Y-78953565D01*
X116799976Y-78945602D01*
X116807189Y-78923401D01*
X116810438Y-78915895D01*
X116819120Y-78861071D01*
X116820575Y-78853453D01*
X116832671Y-78799337D01*
X116832672Y-78799333D01*
X116832415Y-78791170D01*
X116833882Y-78767871D01*
X116835160Y-78759804D01*
X116829938Y-78704562D01*
X116829450Y-78696801D01*
X116828943Y-78680667D01*
X116827709Y-78641373D01*
X116825428Y-78633523D01*
X116821055Y-78610601D01*
X116820287Y-78602467D01*
X116801501Y-78550286D01*
X116799093Y-78542877D01*
X116783618Y-78489611D01*
X116783618Y-78489610D01*
X116779460Y-78482580D01*
X116769523Y-78461464D01*
X116766754Y-78453771D01*
X116766750Y-78453765D01*
X116766749Y-78453762D01*
X116764012Y-78448388D01*
X116750500Y-78392100D01*
X116750500Y-77777191D01*
X116770185Y-77710152D01*
X116809404Y-77671652D01*
X116812099Y-77669989D01*
X116835850Y-77655340D01*
X116957840Y-77533350D01*
X116966442Y-77519404D01*
X117018390Y-77472679D01*
X117071981Y-77460500D01*
X117163019Y-77460500D01*
X117230058Y-77480185D01*
X117268558Y-77519404D01*
X117277159Y-77533348D01*
X117277160Y-77533350D01*
X117399150Y-77655340D01*
X117425596Y-77671652D01*
X117472321Y-77723600D01*
X117484500Y-77777191D01*
X117484500Y-78657255D01*
X117482775Y-78672872D01*
X117483061Y-78672899D01*
X117482326Y-78680665D01*
X117484439Y-78747872D01*
X117484500Y-78751767D01*
X117484500Y-78779357D01*
X117485003Y-78783335D01*
X117485918Y-78794967D01*
X117487290Y-78838624D01*
X117487291Y-78838627D01*
X117492880Y-78857867D01*
X117496824Y-78876911D01*
X117499336Y-78896792D01*
X117515414Y-78937403D01*
X117519197Y-78948452D01*
X117531381Y-78990388D01*
X117541580Y-79007634D01*
X117550138Y-79025103D01*
X117557514Y-79043732D01*
X117583181Y-79079060D01*
X117589593Y-79088821D01*
X117611828Y-79126417D01*
X117611833Y-79126424D01*
X117625990Y-79140580D01*
X117638628Y-79155376D01*
X117650405Y-79171586D01*
X117650406Y-79171587D01*
X117684057Y-79199425D01*
X117692698Y-79207288D01*
X117954194Y-79468784D01*
X117964019Y-79481048D01*
X117964240Y-79480866D01*
X117969210Y-79486874D01*
X118018239Y-79532915D01*
X118021036Y-79535626D01*
X118040530Y-79555120D01*
X118043695Y-79557575D01*
X118052571Y-79565156D01*
X118084418Y-79595062D01*
X118084422Y-79595064D01*
X118101973Y-79604713D01*
X118118231Y-79615392D01*
X118134064Y-79627674D01*
X118169410Y-79642968D01*
X118174155Y-79645022D01*
X118184635Y-79650155D01*
X118222908Y-79671197D01*
X118242312Y-79676179D01*
X118260710Y-79682478D01*
X118279105Y-79690438D01*
X118322254Y-79697271D01*
X118333680Y-79699638D01*
X118375981Y-79710500D01*
X118396016Y-79710500D01*
X118415413Y-79712026D01*
X118435196Y-79715160D01*
X118478675Y-79711050D01*
X118490344Y-79710500D01*
X118644850Y-79710500D01*
X118711889Y-79730185D01*
X118757644Y-79782989D01*
X118758405Y-79784689D01*
X118765824Y-79801603D01*
X118901833Y-80009782D01*
X118901836Y-80009785D01*
X119070256Y-80192738D01*
X119266491Y-80345474D01*
X119485190Y-80463828D01*
X119720386Y-80544571D01*
X119965665Y-80585500D01*
X120214335Y-80585500D01*
X120459614Y-80544571D01*
X120694810Y-80463828D01*
X120913509Y-80345474D01*
X121109744Y-80192738D01*
X121278164Y-80009785D01*
X121414173Y-79801607D01*
X121514063Y-79573881D01*
X121575108Y-79332821D01*
X121575109Y-79332812D01*
X121595643Y-79085005D01*
X121595643Y-79084994D01*
X121575109Y-78837187D01*
X121575107Y-78837175D01*
X121514063Y-78596118D01*
X121414173Y-78368393D01*
X121278166Y-78160217D01*
X121256557Y-78136744D01*
X121109744Y-77977262D01*
X120913509Y-77824526D01*
X120913508Y-77824525D01*
X120913505Y-77824523D01*
X120913503Y-77824522D01*
X120776311Y-77750278D01*
X120726720Y-77701058D01*
X120711612Y-77632842D01*
X120735782Y-77567286D01*
X120747635Y-77553554D01*
X120767840Y-77533350D01*
X120776442Y-77519404D01*
X120828390Y-77472679D01*
X120881981Y-77460500D01*
X121216252Y-77460500D01*
X121283291Y-77480185D01*
X121308400Y-77501526D01*
X121314126Y-77507885D01*
X121314130Y-77507889D01*
X121467265Y-77619148D01*
X121467270Y-77619151D01*
X121640192Y-77696142D01*
X121640197Y-77696144D01*
X121825354Y-77735500D01*
X121825355Y-77735500D01*
X122014644Y-77735500D01*
X122014646Y-77735500D01*
X122199803Y-77696144D01*
X122372730Y-77619151D01*
X122372733Y-77619148D01*
X122378363Y-77615899D01*
X122379904Y-77618569D01*
X122432948Y-77599415D01*
X122501062Y-77614980D01*
X122549948Y-77664900D01*
X122564500Y-77723185D01*
X122564500Y-81277255D01*
X122562775Y-81292872D01*
X122563061Y-81292899D01*
X122562326Y-81300665D01*
X122564439Y-81367872D01*
X122564500Y-81371767D01*
X122564500Y-81399357D01*
X122565003Y-81403335D01*
X122565918Y-81414967D01*
X122567290Y-81458624D01*
X122567291Y-81458627D01*
X122572880Y-81477867D01*
X122576824Y-81496911D01*
X122579336Y-81516792D01*
X122595414Y-81557403D01*
X122599197Y-81568452D01*
X122611381Y-81610388D01*
X122621580Y-81627634D01*
X122630138Y-81645103D01*
X122637514Y-81663732D01*
X122663181Y-81699060D01*
X122669593Y-81708821D01*
X122691828Y-81746417D01*
X122691833Y-81746424D01*
X122705990Y-81760580D01*
X122718628Y-81775376D01*
X122730405Y-81791586D01*
X122730406Y-81791587D01*
X122764057Y-81819425D01*
X122772698Y-81827288D01*
X124718181Y-83772772D01*
X124751666Y-83834095D01*
X124754500Y-83860453D01*
X124754500Y-84199168D01*
X124754501Y-84199187D01*
X124764825Y-84300252D01*
X124819092Y-84464015D01*
X124819093Y-84464018D01*
X124909661Y-84610851D01*
X125023629Y-84724819D01*
X125057114Y-84786142D01*
X125052130Y-84855834D01*
X125023629Y-84900181D01*
X124909661Y-85014148D01*
X124819093Y-85160981D01*
X124819092Y-85160984D01*
X124764826Y-85324747D01*
X124764826Y-85324748D01*
X124764825Y-85324748D01*
X124754500Y-85425815D01*
X124754500Y-86024169D01*
X124754501Y-86024187D01*
X124764825Y-86125252D01*
X124801109Y-86234749D01*
X124819092Y-86289016D01*
X124909660Y-86435850D01*
X125031650Y-86557840D01*
X125043920Y-86565408D01*
X125045596Y-86566442D01*
X125092321Y-86618390D01*
X125104500Y-86671981D01*
X125104500Y-86937185D01*
X125084815Y-87004224D01*
X125039518Y-87046239D01*
X124961380Y-87088525D01*
X124961365Y-87088535D01*
X124778222Y-87231081D01*
X124778219Y-87231084D01*
X124778216Y-87231086D01*
X124778216Y-87231087D01*
X124753791Y-87257620D01*
X124621016Y-87401852D01*
X124494075Y-87596151D01*
X124400842Y-87808699D01*
X124343866Y-88033691D01*
X124343864Y-88033702D01*
X124324700Y-88264993D01*
X124324700Y-88265006D01*
X124343864Y-88496297D01*
X124343866Y-88496308D01*
X124400842Y-88721300D01*
X124494075Y-88933848D01*
X124621016Y-89128147D01*
X124621019Y-89128151D01*
X124621021Y-89128153D01*
X124778216Y-89298913D01*
X124778219Y-89298915D01*
X124778222Y-89298918D01*
X124961365Y-89441464D01*
X124961371Y-89441468D01*
X124961374Y-89441470D01*
X125165497Y-89551936D01*
X125277000Y-89590215D01*
X125385015Y-89627297D01*
X125385017Y-89627297D01*
X125385019Y-89627298D01*
X125613951Y-89665500D01*
X125613952Y-89665500D01*
X125846048Y-89665500D01*
X125846049Y-89665500D01*
X126074981Y-89627298D01*
X126294503Y-89551936D01*
X126498626Y-89441470D01*
X126681784Y-89298913D01*
X126690511Y-89289432D01*
X126750394Y-89253441D01*
X126820232Y-89255538D01*
X126877850Y-89295060D01*
X126897924Y-89330080D01*
X126926645Y-89407086D01*
X126926649Y-89407093D01*
X127012809Y-89522187D01*
X127012812Y-89522190D01*
X127127906Y-89608350D01*
X127127913Y-89608354D01*
X127262620Y-89658596D01*
X127262627Y-89658598D01*
X127322155Y-89664999D01*
X127322172Y-89665000D01*
X128020000Y-89665000D01*
X128020000Y-88639189D01*
X128072547Y-88675016D01*
X128202173Y-88715000D01*
X128303724Y-88715000D01*
X128404138Y-88699865D01*
X128520000Y-88644068D01*
X128520000Y-89665000D01*
X129217828Y-89665000D01*
X129217844Y-89664999D01*
X129277372Y-89658598D01*
X129277379Y-89658596D01*
X129412086Y-89608354D01*
X129412093Y-89608350D01*
X129527187Y-89522190D01*
X129527190Y-89522187D01*
X129613350Y-89407093D01*
X129613354Y-89407086D01*
X129663596Y-89272379D01*
X129663598Y-89272372D01*
X129669999Y-89212844D01*
X129670000Y-89212827D01*
X129670000Y-88515000D01*
X128645278Y-88515000D01*
X128693625Y-88431260D01*
X128723810Y-88299008D01*
X128713673Y-88163735D01*
X128664113Y-88037459D01*
X128646203Y-88015000D01*
X129670000Y-88015000D01*
X129670000Y-87317172D01*
X129669999Y-87317155D01*
X129663598Y-87257627D01*
X129663596Y-87257620D01*
X129613354Y-87122913D01*
X129613350Y-87122906D01*
X129527190Y-87007812D01*
X129527187Y-87007809D01*
X129412093Y-86921649D01*
X129412086Y-86921645D01*
X129277379Y-86871403D01*
X129277372Y-86871401D01*
X129217844Y-86865000D01*
X128520000Y-86865000D01*
X128520000Y-87890810D01*
X128467453Y-87854984D01*
X128337827Y-87815000D01*
X128236276Y-87815000D01*
X128135862Y-87830135D01*
X128020000Y-87885931D01*
X128020000Y-86865000D01*
X127322155Y-86865000D01*
X127262627Y-86871401D01*
X127262620Y-86871403D01*
X127127913Y-86921645D01*
X127127906Y-86921649D01*
X127012812Y-87007809D01*
X127012809Y-87007812D01*
X126926649Y-87122906D01*
X126926646Y-87122911D01*
X126897924Y-87199920D01*
X126856052Y-87255853D01*
X126790588Y-87280270D01*
X126722315Y-87265418D01*
X126690514Y-87240571D01*
X126681784Y-87231087D01*
X126681779Y-87231083D01*
X126681777Y-87231081D01*
X126498634Y-87088535D01*
X126498619Y-87088525D01*
X126420482Y-87046239D01*
X126370891Y-86997020D01*
X126355500Y-86937185D01*
X126355500Y-86671981D01*
X126375185Y-86604942D01*
X126414404Y-86566442D01*
X126415295Y-86565892D01*
X126428350Y-86557840D01*
X126550340Y-86435850D01*
X126640908Y-86289016D01*
X126695174Y-86125253D01*
X126705500Y-86024177D01*
X126705499Y-85425824D01*
X126695174Y-85324747D01*
X126640908Y-85160984D01*
X126550340Y-85014150D01*
X126436371Y-84900181D01*
X126402886Y-84838858D01*
X126407870Y-84769166D01*
X126436371Y-84724819D01*
X126550340Y-84610850D01*
X126640908Y-84464016D01*
X126695174Y-84300253D01*
X126705500Y-84199177D01*
X126705499Y-83600824D01*
X126695174Y-83499747D01*
X126640908Y-83335984D01*
X126550340Y-83189150D01*
X126428350Y-83067160D01*
X126281516Y-82976592D01*
X126117753Y-82922326D01*
X126117751Y-82922325D01*
X126016684Y-82912000D01*
X126016677Y-82912000D01*
X125677953Y-82912000D01*
X125610914Y-82892315D01*
X125590272Y-82875681D01*
X123851819Y-81137228D01*
X123818334Y-81075905D01*
X123815500Y-81049547D01*
X123815500Y-71739452D01*
X123835185Y-71672413D01*
X123887989Y-71626658D01*
X123957147Y-71616714D01*
X124020703Y-71645739D01*
X124027181Y-71651771D01*
X124718181Y-72342772D01*
X124751666Y-72404095D01*
X124754500Y-72430453D01*
X124754500Y-72769168D01*
X124754501Y-72769187D01*
X124764825Y-72870252D01*
X124819092Y-73034015D01*
X124819093Y-73034018D01*
X124909661Y-73180851D01*
X125023629Y-73294819D01*
X125057114Y-73356142D01*
X125052130Y-73425834D01*
X125023629Y-73470181D01*
X124909661Y-73584148D01*
X124819093Y-73730981D01*
X124819092Y-73730984D01*
X124764826Y-73894747D01*
X124764826Y-73894748D01*
X124764825Y-73894748D01*
X124754500Y-73995815D01*
X124754500Y-74594169D01*
X124754501Y-74594187D01*
X124764825Y-74695252D01*
X124801109Y-74804749D01*
X124819092Y-74859016D01*
X124909660Y-75005850D01*
X125031650Y-75127840D01*
X125043920Y-75135408D01*
X125045596Y-75136442D01*
X125092321Y-75188390D01*
X125104500Y-75241981D01*
X125104500Y-75507185D01*
X125084815Y-75574224D01*
X125039518Y-75616239D01*
X124961380Y-75658525D01*
X124961365Y-75658535D01*
X124778222Y-75801081D01*
X124778219Y-75801084D01*
X124778216Y-75801086D01*
X124778216Y-75801087D01*
X124753791Y-75827620D01*
X124621016Y-75971852D01*
X124494075Y-76166151D01*
X124400842Y-76378699D01*
X124343866Y-76603691D01*
X124343864Y-76603702D01*
X124324700Y-76834993D01*
X124324700Y-76835006D01*
X124343864Y-77066297D01*
X124343866Y-77066308D01*
X124400842Y-77291300D01*
X124494075Y-77503848D01*
X124621016Y-77698147D01*
X124621019Y-77698151D01*
X124621021Y-77698153D01*
X124778216Y-77868913D01*
X124778219Y-77868915D01*
X124778222Y-77868918D01*
X124961365Y-78011464D01*
X124961371Y-78011468D01*
X124961374Y-78011470D01*
X125165497Y-78121936D01*
X125277000Y-78160215D01*
X125385015Y-78197297D01*
X125385017Y-78197297D01*
X125385019Y-78197298D01*
X125613951Y-78235500D01*
X125613952Y-78235500D01*
X125846048Y-78235500D01*
X125846049Y-78235500D01*
X126074981Y-78197298D01*
X126294503Y-78121936D01*
X126498626Y-78011470D01*
X126681784Y-77868913D01*
X126690511Y-77859432D01*
X126750394Y-77823441D01*
X126820232Y-77825538D01*
X126877850Y-77865060D01*
X126897924Y-77900080D01*
X126926645Y-77977086D01*
X126926649Y-77977093D01*
X127012809Y-78092187D01*
X127012812Y-78092190D01*
X127127906Y-78178350D01*
X127127913Y-78178354D01*
X127262620Y-78228596D01*
X127262627Y-78228598D01*
X127322155Y-78234999D01*
X127322172Y-78235000D01*
X128020000Y-78235000D01*
X128020000Y-77209189D01*
X128072547Y-77245016D01*
X128202173Y-77285000D01*
X128303724Y-77285000D01*
X128404138Y-77269865D01*
X128520000Y-77214068D01*
X128520000Y-78235000D01*
X129217828Y-78235000D01*
X129217844Y-78234999D01*
X129277372Y-78228598D01*
X129277379Y-78228596D01*
X129412086Y-78178354D01*
X129412093Y-78178350D01*
X129527187Y-78092190D01*
X129527190Y-78092187D01*
X129613350Y-77977093D01*
X129613354Y-77977086D01*
X129663596Y-77842379D01*
X129663598Y-77842372D01*
X129669999Y-77782844D01*
X129670000Y-77782827D01*
X129670000Y-77085000D01*
X128645278Y-77085000D01*
X128693625Y-77001260D01*
X128723810Y-76869008D01*
X128713673Y-76733735D01*
X128664113Y-76607459D01*
X128646203Y-76585000D01*
X129670000Y-76585000D01*
X129670000Y-75887172D01*
X129669999Y-75887155D01*
X129663598Y-75827627D01*
X129663596Y-75827620D01*
X129613354Y-75692913D01*
X129613350Y-75692906D01*
X129527190Y-75577812D01*
X129527187Y-75577809D01*
X129412093Y-75491649D01*
X129412086Y-75491645D01*
X129277379Y-75441403D01*
X129277372Y-75441401D01*
X129217844Y-75435000D01*
X128520000Y-75435000D01*
X128520000Y-76460810D01*
X128467453Y-76424984D01*
X128337827Y-76385000D01*
X128236276Y-76385000D01*
X128135862Y-76400135D01*
X128020000Y-76455931D01*
X128020000Y-75435000D01*
X127322155Y-75435000D01*
X127262627Y-75441401D01*
X127262620Y-75441403D01*
X127127913Y-75491645D01*
X127127906Y-75491649D01*
X127012812Y-75577809D01*
X127012809Y-75577812D01*
X126926649Y-75692906D01*
X126926646Y-75692911D01*
X126897924Y-75769920D01*
X126856052Y-75825853D01*
X126790588Y-75850270D01*
X126722315Y-75835418D01*
X126690514Y-75810571D01*
X126681784Y-75801087D01*
X126681779Y-75801083D01*
X126681777Y-75801081D01*
X126498634Y-75658535D01*
X126498619Y-75658525D01*
X126420482Y-75616239D01*
X126370891Y-75567020D01*
X126355500Y-75507185D01*
X126355500Y-75241981D01*
X126375185Y-75174942D01*
X126414404Y-75136442D01*
X126415295Y-75135892D01*
X126428350Y-75127840D01*
X126550340Y-75005850D01*
X126640908Y-74859016D01*
X126695174Y-74695253D01*
X126705500Y-74594177D01*
X126705499Y-73995824D01*
X126695174Y-73894747D01*
X126640908Y-73730984D01*
X126550340Y-73584150D01*
X126436371Y-73470181D01*
X126402886Y-73408858D01*
X126407870Y-73339166D01*
X126436371Y-73294819D01*
X126550340Y-73180850D01*
X126640908Y-73034016D01*
X126695174Y-72870253D01*
X126705500Y-72769177D01*
X126705499Y-72170824D01*
X126695174Y-72069747D01*
X126640908Y-71905984D01*
X126550340Y-71759150D01*
X126428350Y-71637160D01*
X126281516Y-71546592D01*
X126117753Y-71492326D01*
X126117751Y-71492325D01*
X126016684Y-71482000D01*
X126016677Y-71482000D01*
X125677952Y-71482000D01*
X125610913Y-71462315D01*
X125590271Y-71445681D01*
X124486819Y-70342228D01*
X124453334Y-70280905D01*
X124450500Y-70254547D01*
X124450500Y-68940701D01*
X124470185Y-68873662D01*
X124522989Y-68827907D01*
X124592147Y-68817963D01*
X124655703Y-68846988D01*
X124665720Y-68856709D01*
X124737353Y-68934524D01*
X124778213Y-68978910D01*
X124778222Y-68978918D01*
X124961365Y-69121464D01*
X124961371Y-69121468D01*
X124961374Y-69121470D01*
X125165497Y-69231936D01*
X125277000Y-69270215D01*
X125385015Y-69307297D01*
X125385017Y-69307297D01*
X125385019Y-69307298D01*
X125613951Y-69345500D01*
X125613952Y-69345500D01*
X125846048Y-69345500D01*
X125846049Y-69345500D01*
X126074981Y-69307298D01*
X126294503Y-69231936D01*
X126498626Y-69121470D01*
X126681784Y-68978913D01*
X126690511Y-68969432D01*
X126750394Y-68933441D01*
X126820232Y-68935538D01*
X126877850Y-68975060D01*
X126897924Y-69010080D01*
X126926645Y-69087086D01*
X126926649Y-69087093D01*
X127012809Y-69202187D01*
X127012812Y-69202190D01*
X127127906Y-69288350D01*
X127127913Y-69288354D01*
X127262620Y-69338596D01*
X127262627Y-69338598D01*
X127322155Y-69344999D01*
X127322172Y-69345000D01*
X128020000Y-69345000D01*
X128020000Y-68319189D01*
X128072547Y-68355016D01*
X128202173Y-68395000D01*
X128303724Y-68395000D01*
X128404138Y-68379865D01*
X128520000Y-68324068D01*
X128520000Y-69345000D01*
X129217828Y-69345000D01*
X129217844Y-69344999D01*
X129277372Y-69338598D01*
X129277379Y-69338596D01*
X129412086Y-69288354D01*
X129412093Y-69288350D01*
X129527187Y-69202190D01*
X129527190Y-69202187D01*
X129613350Y-69087093D01*
X129613354Y-69087086D01*
X129663596Y-68952379D01*
X129663598Y-68952372D01*
X129669999Y-68892844D01*
X129670000Y-68892827D01*
X129670000Y-68195000D01*
X128645278Y-68195000D01*
X128693625Y-68111260D01*
X128723810Y-67979008D01*
X128713673Y-67843735D01*
X128664113Y-67717459D01*
X128646203Y-67695000D01*
X129670000Y-67695000D01*
X129670000Y-66997172D01*
X129669999Y-66997155D01*
X129663598Y-66937627D01*
X129663596Y-66937620D01*
X129613354Y-66802913D01*
X129613350Y-66802906D01*
X129527190Y-66687812D01*
X129527187Y-66687809D01*
X129412093Y-66601649D01*
X129412086Y-66601645D01*
X129277379Y-66551403D01*
X129277372Y-66551401D01*
X129217844Y-66545000D01*
X128520000Y-66545000D01*
X128520000Y-67570810D01*
X128467453Y-67534984D01*
X128337827Y-67495000D01*
X128236276Y-67495000D01*
X128135862Y-67510135D01*
X128020000Y-67565931D01*
X128020000Y-66545000D01*
X127322155Y-66545000D01*
X127262627Y-66551401D01*
X127262620Y-66551403D01*
X127127913Y-66601645D01*
X127127906Y-66601649D01*
X127012812Y-66687809D01*
X127012809Y-66687812D01*
X126926649Y-66802906D01*
X126926646Y-66802911D01*
X126897924Y-66879920D01*
X126856052Y-66935853D01*
X126790588Y-66960270D01*
X126722315Y-66945418D01*
X126690514Y-66920571D01*
X126681784Y-66911087D01*
X126681779Y-66911083D01*
X126681777Y-66911081D01*
X126498634Y-66768535D01*
X126498619Y-66768525D01*
X126420482Y-66726239D01*
X126370891Y-66677020D01*
X126355500Y-66617185D01*
X126355500Y-66351981D01*
X126375185Y-66284942D01*
X126414404Y-66246442D01*
X126415295Y-66245892D01*
X126428350Y-66237840D01*
X126550340Y-66115850D01*
X126640908Y-65969016D01*
X126695174Y-65805253D01*
X126705500Y-65704177D01*
X126705499Y-65105824D01*
X126695174Y-65004747D01*
X126640908Y-64840984D01*
X126550340Y-64694150D01*
X126436371Y-64580181D01*
X126402886Y-64518858D01*
X126407870Y-64449166D01*
X126436371Y-64404819D01*
X126550340Y-64290850D01*
X126640908Y-64144016D01*
X126695174Y-63980253D01*
X126705500Y-63879177D01*
X126705499Y-63280824D01*
X126695174Y-63179747D01*
X126640908Y-63015984D01*
X126550340Y-62869150D01*
X126428350Y-62747160D01*
X126281516Y-62656592D01*
X126117753Y-62602326D01*
X126117751Y-62602325D01*
X126016684Y-62592000D01*
X126016677Y-62592000D01*
X125677953Y-62592000D01*
X125610914Y-62572315D01*
X125590272Y-62555681D01*
X125121819Y-62087228D01*
X125088334Y-62025905D01*
X125085500Y-61999547D01*
X125085500Y-60488146D01*
X125105185Y-60421107D01*
X125157989Y-60375352D01*
X125227147Y-60365408D01*
X125249763Y-60370865D01*
X125385015Y-60417297D01*
X125385017Y-60417297D01*
X125385019Y-60417298D01*
X125613951Y-60455500D01*
X125613952Y-60455500D01*
X125846048Y-60455500D01*
X125846049Y-60455500D01*
X126074981Y-60417298D01*
X126294503Y-60341936D01*
X126498626Y-60231470D01*
X126681784Y-60088913D01*
X126690511Y-60079432D01*
X126750394Y-60043441D01*
X126820232Y-60045538D01*
X126877850Y-60085060D01*
X126897924Y-60120080D01*
X126926645Y-60197086D01*
X126926649Y-60197093D01*
X127012809Y-60312187D01*
X127012812Y-60312190D01*
X127127906Y-60398350D01*
X127127913Y-60398354D01*
X127262620Y-60448596D01*
X127262627Y-60448598D01*
X127322155Y-60454999D01*
X127322172Y-60455000D01*
X128020000Y-60455000D01*
X128020000Y-59429189D01*
X128072547Y-59465016D01*
X128202173Y-59505000D01*
X128303724Y-59505000D01*
X128404138Y-59489865D01*
X128520000Y-59434068D01*
X128520000Y-60455000D01*
X129217828Y-60455000D01*
X129217844Y-60454999D01*
X129277372Y-60448598D01*
X129277379Y-60448596D01*
X129412086Y-60398354D01*
X129412093Y-60398350D01*
X129527187Y-60312190D01*
X129527190Y-60312187D01*
X129613350Y-60197093D01*
X129613354Y-60197086D01*
X129663596Y-60062379D01*
X129663598Y-60062372D01*
X129669999Y-60002844D01*
X129670000Y-60002827D01*
X129670000Y-59305000D01*
X128645278Y-59305000D01*
X128693625Y-59221260D01*
X128723810Y-59089008D01*
X128713673Y-58953735D01*
X128664113Y-58827459D01*
X128646203Y-58805000D01*
X129670000Y-58805000D01*
X129670000Y-58107172D01*
X129669999Y-58107155D01*
X129663598Y-58047627D01*
X129663596Y-58047620D01*
X129613354Y-57912913D01*
X129613350Y-57912906D01*
X129527190Y-57797812D01*
X129527187Y-57797809D01*
X129412093Y-57711649D01*
X129412086Y-57711645D01*
X129277379Y-57661403D01*
X129277372Y-57661401D01*
X129217844Y-57655000D01*
X128520000Y-57655000D01*
X128520000Y-58680810D01*
X128467453Y-58644984D01*
X128337827Y-58605000D01*
X128236276Y-58605000D01*
X128135862Y-58620135D01*
X128020000Y-58675931D01*
X128020000Y-57655000D01*
X127322155Y-57655000D01*
X127262627Y-57661401D01*
X127262620Y-57661403D01*
X127127913Y-57711645D01*
X127127906Y-57711649D01*
X127012812Y-57797809D01*
X127012809Y-57797812D01*
X126926649Y-57912906D01*
X126926646Y-57912911D01*
X126897924Y-57989920D01*
X126856052Y-58045853D01*
X126790588Y-58070270D01*
X126722315Y-58055418D01*
X126690514Y-58030571D01*
X126681784Y-58021087D01*
X126681779Y-58021083D01*
X126681777Y-58021081D01*
X126498634Y-57878535D01*
X126498619Y-57878525D01*
X126420482Y-57836239D01*
X126370891Y-57787020D01*
X126355500Y-57727185D01*
X126355500Y-57461981D01*
X126375185Y-57394942D01*
X126414404Y-57356442D01*
X126415295Y-57355892D01*
X126428350Y-57347840D01*
X126550340Y-57225850D01*
X126640908Y-57079016D01*
X126695174Y-56915253D01*
X126705500Y-56814177D01*
X126705499Y-56215824D01*
X126695174Y-56114747D01*
X126640908Y-55950984D01*
X126550340Y-55804150D01*
X126436371Y-55690181D01*
X126402886Y-55628858D01*
X126407870Y-55559166D01*
X126436371Y-55514819D01*
X126550340Y-55400850D01*
X126640908Y-55254016D01*
X126649174Y-55229067D01*
X126679190Y-55180398D01*
X126685583Y-55174006D01*
X126700379Y-55161368D01*
X126716587Y-55149594D01*
X126744438Y-55115926D01*
X126752279Y-55107309D01*
X127383786Y-54475802D01*
X127396048Y-54465980D01*
X127395865Y-54465759D01*
X127401868Y-54460791D01*
X127401877Y-54460786D01*
X127447934Y-54411739D01*
X127450582Y-54409006D01*
X127470120Y-54389470D01*
X127472570Y-54386310D01*
X127480154Y-54377429D01*
X127510062Y-54345582D01*
X127519714Y-54328023D01*
X127530389Y-54311772D01*
X127542674Y-54295936D01*
X127560030Y-54255825D01*
X127565161Y-54245354D01*
X127586194Y-54207098D01*
X127586194Y-54207097D01*
X127586197Y-54207092D01*
X127591180Y-54187680D01*
X127597477Y-54169291D01*
X127605438Y-54150895D01*
X127612270Y-54107748D01*
X127614639Y-54096316D01*
X127625499Y-54054022D01*
X127625500Y-54054017D01*
X127625500Y-54033983D01*
X127627027Y-54014582D01*
X127630160Y-53994804D01*
X127626050Y-53951324D01*
X127625500Y-53939655D01*
X127625500Y-52274499D01*
X127645185Y-52207460D01*
X127697989Y-52161705D01*
X127749500Y-52150499D01*
X127897871Y-52150499D01*
X127897872Y-52150499D01*
X127957483Y-52144091D01*
X128092331Y-52093796D01*
X128207546Y-52007546D01*
X128293796Y-51892331D01*
X128344091Y-51757483D01*
X128350500Y-51697873D01*
X128350499Y-49902128D01*
X128344091Y-49842517D01*
X128342810Y-49839083D01*
X128293797Y-49707671D01*
X128293793Y-49707664D01*
X128207547Y-49592455D01*
X128207544Y-49592452D01*
X128092335Y-49506206D01*
X128092328Y-49506202D01*
X127960917Y-49457189D01*
X127904983Y-49415318D01*
X127880566Y-49349853D01*
X127895418Y-49281580D01*
X127916563Y-49253332D01*
X128038495Y-49131401D01*
X128174035Y-48937830D01*
X128273903Y-48723663D01*
X128335063Y-48495408D01*
X128355659Y-48260000D01*
X128335063Y-48024592D01*
X128273903Y-47796337D01*
X128174035Y-47582171D01*
X128168731Y-47574595D01*
X128038494Y-47388597D01*
X127871402Y-47221506D01*
X127871395Y-47221501D01*
X127677834Y-47085967D01*
X127677830Y-47085965D01*
X127677828Y-47085964D01*
X127463663Y-46986097D01*
X127463659Y-46986096D01*
X127463655Y-46986094D01*
X127235413Y-46924938D01*
X127235403Y-46924936D01*
X127000001Y-46904341D01*
X126999999Y-46904341D01*
X126764596Y-46924936D01*
X126764586Y-46924938D01*
X126536344Y-46986094D01*
X126536335Y-46986098D01*
X126322171Y-47085964D01*
X126322169Y-47085965D01*
X126128597Y-47221505D01*
X125961505Y-47388597D01*
X125831575Y-47574158D01*
X125776998Y-47617783D01*
X125707500Y-47624977D01*
X125645145Y-47593454D01*
X125628425Y-47574158D01*
X125498494Y-47388597D01*
X125331402Y-47221506D01*
X125331395Y-47221501D01*
X125137834Y-47085967D01*
X125137830Y-47085965D01*
X125137828Y-47085964D01*
X124923663Y-46986097D01*
X124923659Y-46986096D01*
X124923655Y-46986094D01*
X124695413Y-46924938D01*
X124695403Y-46924936D01*
X124460001Y-46904341D01*
X124459999Y-46904341D01*
X124224596Y-46924936D01*
X124224586Y-46924938D01*
X123996344Y-46986094D01*
X123996335Y-46986098D01*
X123782171Y-47085964D01*
X123782169Y-47085965D01*
X123588597Y-47221505D01*
X123421505Y-47388597D01*
X123291575Y-47574158D01*
X123236998Y-47617783D01*
X123167500Y-47624977D01*
X123105145Y-47593454D01*
X123088425Y-47574158D01*
X122958494Y-47388597D01*
X122791402Y-47221506D01*
X122791395Y-47221501D01*
X122597834Y-47085967D01*
X122597830Y-47085965D01*
X122597828Y-47085964D01*
X122383663Y-46986097D01*
X122383659Y-46986096D01*
X122383655Y-46986094D01*
X122155413Y-46924938D01*
X122155403Y-46924936D01*
X121920001Y-46904341D01*
X121919999Y-46904341D01*
X121684596Y-46924936D01*
X121684586Y-46924938D01*
X121456344Y-46986094D01*
X121456335Y-46986098D01*
X121242171Y-47085964D01*
X121242169Y-47085965D01*
X121048597Y-47221505D01*
X120881505Y-47388597D01*
X120751575Y-47574158D01*
X120696998Y-47617783D01*
X120627500Y-47624977D01*
X120565145Y-47593454D01*
X120548425Y-47574158D01*
X120418494Y-47388597D01*
X120251402Y-47221506D01*
X120251395Y-47221501D01*
X120057834Y-47085967D01*
X120057830Y-47085965D01*
X120057828Y-47085964D01*
X119843663Y-46986097D01*
X119843659Y-46986096D01*
X119843655Y-46986094D01*
X119615413Y-46924938D01*
X119615403Y-46924936D01*
X119380001Y-46904341D01*
X119379999Y-46904341D01*
X119144596Y-46924936D01*
X119144586Y-46924938D01*
X118916344Y-46986094D01*
X118916335Y-46986098D01*
X118702171Y-47085964D01*
X118702169Y-47085965D01*
X118508597Y-47221505D01*
X118341508Y-47388594D01*
X118211269Y-47574595D01*
X118156692Y-47618219D01*
X118087193Y-47625412D01*
X118024839Y-47593890D01*
X118008119Y-47574594D01*
X117878113Y-47388926D01*
X117878108Y-47388920D01*
X117711082Y-47221894D01*
X117517578Y-47086399D01*
X117303492Y-46986570D01*
X117303486Y-46986567D01*
X117090000Y-46929364D01*
X117090000Y-47824498D01*
X116982315Y-47775320D01*
X116875763Y-47760000D01*
X116804237Y-47760000D01*
X116697685Y-47775320D01*
X116590000Y-47824498D01*
X116590000Y-46929364D01*
X116589999Y-46929364D01*
X116376513Y-46986567D01*
X116376507Y-46986570D01*
X116162422Y-47086399D01*
X116162420Y-47086400D01*
X115968926Y-47221886D01*
X115968920Y-47221891D01*
X115801891Y-47388920D01*
X115801890Y-47388922D01*
X115671880Y-47574595D01*
X115617303Y-47618219D01*
X115547804Y-47625412D01*
X115485450Y-47593890D01*
X115468730Y-47574594D01*
X115338494Y-47388597D01*
X115171402Y-47221506D01*
X115171395Y-47221501D01*
X114977834Y-47085967D01*
X114977830Y-47085965D01*
X114977828Y-47085964D01*
X114763663Y-46986097D01*
X114763659Y-46986096D01*
X114763655Y-46986094D01*
X114535413Y-46924938D01*
X114535403Y-46924936D01*
X114300001Y-46904341D01*
X114299999Y-46904341D01*
X114064596Y-46924936D01*
X114064586Y-46924938D01*
X113836344Y-46986094D01*
X113836335Y-46986098D01*
X113622171Y-47085964D01*
X113622169Y-47085965D01*
X113428597Y-47221505D01*
X113261505Y-47388597D01*
X113125965Y-47582169D01*
X113125964Y-47582171D01*
X113026098Y-47796335D01*
X113026094Y-47796344D01*
X112964938Y-48024586D01*
X112964936Y-48024596D01*
X112944341Y-48259999D01*
X112944341Y-48260000D01*
X112964936Y-48495403D01*
X112964938Y-48495413D01*
X113026094Y-48723655D01*
X113026096Y-48723659D01*
X113026097Y-48723663D01*
X113105801Y-48894588D01*
X113125965Y-48937830D01*
X113125967Y-48937834D01*
X113234281Y-49092521D01*
X113261504Y-49131400D01*
X113261506Y-49131402D01*
X113428597Y-49298493D01*
X113428603Y-49298498D01*
X113614158Y-49428425D01*
X113657783Y-49483002D01*
X113664977Y-49552500D01*
X113633454Y-49614855D01*
X113614158Y-49631575D01*
X113428597Y-49761505D01*
X113261505Y-49928597D01*
X113125965Y-50122169D01*
X113125964Y-50122171D01*
X113026098Y-50336335D01*
X113026094Y-50336344D01*
X112964938Y-50564586D01*
X112964936Y-50564596D01*
X112944341Y-50799999D01*
X112944341Y-50800000D01*
X112964936Y-51035403D01*
X112964938Y-51035413D01*
X113026094Y-51263655D01*
X113026096Y-51263659D01*
X113026097Y-51263663D01*
X113105801Y-51434588D01*
X113125965Y-51477830D01*
X113125967Y-51477834D01*
X113234281Y-51632521D01*
X113261505Y-51671401D01*
X113428599Y-51838495D01*
X113525384Y-51906265D01*
X113622165Y-51974032D01*
X113622167Y-51974033D01*
X113622170Y-51974035D01*
X113836337Y-52073903D01*
X113836343Y-52073904D01*
X113836344Y-52073905D01*
X113891285Y-52088626D01*
X114064592Y-52135063D01*
X114241034Y-52150500D01*
X114299999Y-52155659D01*
X114300000Y-52155659D01*
X114300001Y-52155659D01*
X114358966Y-52150500D01*
X114535408Y-52135063D01*
X114763663Y-52073903D01*
X114977830Y-51974035D01*
X115171401Y-51838495D01*
X115338495Y-51671401D01*
X115468730Y-51485405D01*
X115523307Y-51441781D01*
X115592805Y-51434587D01*
X115655160Y-51466110D01*
X115671879Y-51485405D01*
X115801890Y-51671078D01*
X115968917Y-51838105D01*
X116162421Y-51973600D01*
X116376507Y-52073429D01*
X116376516Y-52073433D01*
X116590000Y-52130634D01*
X116590000Y-51235501D01*
X116697685Y-51284680D01*
X116804237Y-51300000D01*
X116875763Y-51300000D01*
X116982315Y-51284680D01*
X117090000Y-51235501D01*
X117090000Y-52130633D01*
X117303483Y-52073433D01*
X117303492Y-52073429D01*
X117517578Y-51973600D01*
X117711082Y-51838105D01*
X117878105Y-51671082D01*
X118008119Y-51485405D01*
X118062696Y-51441781D01*
X118132195Y-51434588D01*
X118194549Y-51466110D01*
X118211269Y-51485405D01*
X118341505Y-51671401D01*
X118508599Y-51838495D01*
X118605384Y-51906265D01*
X118702165Y-51974032D01*
X118702167Y-51974033D01*
X118702170Y-51974035D01*
X118916337Y-52073903D01*
X118916343Y-52073904D01*
X118916344Y-52073905D01*
X118971285Y-52088626D01*
X119144592Y-52135063D01*
X119321034Y-52150500D01*
X119379999Y-52155659D01*
X119380000Y-52155659D01*
X119380001Y-52155659D01*
X119438966Y-52150500D01*
X119615408Y-52135063D01*
X119715873Y-52108143D01*
X119785722Y-52109806D01*
X119835647Y-52140237D01*
X120784197Y-53088788D01*
X120794022Y-53101051D01*
X120794243Y-53100869D01*
X120799211Y-53106874D01*
X120848222Y-53152899D01*
X120851021Y-53155612D01*
X120870522Y-53175114D01*
X120870526Y-53175117D01*
X120870529Y-53175120D01*
X120873702Y-53177581D01*
X120882574Y-53185159D01*
X120914418Y-53215062D01*
X120931976Y-53224714D01*
X120948233Y-53235393D01*
X120964064Y-53247673D01*
X120993803Y-53260542D01*
X121004152Y-53265021D01*
X121014641Y-53270160D01*
X121038457Y-53283252D01*
X121052908Y-53291197D01*
X121065523Y-53294435D01*
X121072305Y-53296177D01*
X121090719Y-53302481D01*
X121109104Y-53310438D01*
X121152261Y-53317273D01*
X121163656Y-53319632D01*
X121205981Y-53330500D01*
X121226016Y-53330500D01*
X121245413Y-53332026D01*
X121265196Y-53335160D01*
X121308675Y-53331050D01*
X121320344Y-53330500D01*
X122244548Y-53330500D01*
X122311587Y-53350185D01*
X122332229Y-53366819D01*
X122528181Y-53562771D01*
X122561666Y-53624094D01*
X122564500Y-53650452D01*
X122564500Y-58166814D01*
X122544815Y-58233853D01*
X122492011Y-58279608D01*
X122422853Y-58289552D01*
X122379572Y-58272005D01*
X122378363Y-58274101D01*
X122372729Y-58270848D01*
X122199807Y-58193857D01*
X122199802Y-58193855D01*
X122050830Y-58162191D01*
X122014646Y-58154500D01*
X121825354Y-58154500D01*
X121792897Y-58161398D01*
X121640197Y-58193855D01*
X121640192Y-58193857D01*
X121467270Y-58270848D01*
X121467265Y-58270851D01*
X121314130Y-58382110D01*
X121314126Y-58382114D01*
X121308400Y-58388474D01*
X121248913Y-58425121D01*
X121216252Y-58429500D01*
X120881981Y-58429500D01*
X120814942Y-58409815D01*
X120776442Y-58370596D01*
X120775408Y-58368920D01*
X120767840Y-58356650D01*
X120747647Y-58336457D01*
X120714162Y-58275134D01*
X120719146Y-58205442D01*
X120761018Y-58149509D01*
X120776302Y-58139726D01*
X120913509Y-58065474D01*
X121109744Y-57912738D01*
X121278164Y-57729785D01*
X121414173Y-57521607D01*
X121514063Y-57293881D01*
X121575108Y-57052821D01*
X121575109Y-57052812D01*
X121595643Y-56805005D01*
X121595643Y-56804994D01*
X121575109Y-56557187D01*
X121575107Y-56557175D01*
X121514063Y-56316118D01*
X121414173Y-56088393D01*
X121278166Y-55880217D01*
X121208139Y-55804148D01*
X121109744Y-55697262D01*
X120913509Y-55544526D01*
X120913507Y-55544525D01*
X120913506Y-55544524D01*
X120694811Y-55426172D01*
X120694802Y-55426169D01*
X120459616Y-55345429D01*
X120214335Y-55304500D01*
X119965665Y-55304500D01*
X119720383Y-55345429D01*
X119485197Y-55426169D01*
X119485188Y-55426172D01*
X119266493Y-55544524D01*
X119070257Y-55697261D01*
X118901833Y-55880217D01*
X118765824Y-56088396D01*
X118758405Y-56105311D01*
X118713449Y-56158797D01*
X118646713Y-56179486D01*
X118644850Y-56179500D01*
X115035150Y-56179500D01*
X114968111Y-56159815D01*
X114922356Y-56107011D01*
X114921595Y-56105311D01*
X114914175Y-56088396D01*
X114778166Y-55880217D01*
X114708139Y-55804148D01*
X114609744Y-55697262D01*
X114413509Y-55544526D01*
X114413507Y-55544525D01*
X114413506Y-55544524D01*
X114194811Y-55426172D01*
X114194802Y-55426169D01*
X113959616Y-55345429D01*
X113714335Y-55304500D01*
X113465665Y-55304500D01*
X113220383Y-55345429D01*
X112985197Y-55426169D01*
X112985188Y-55426172D01*
X112766493Y-55544524D01*
X112570257Y-55697261D01*
X112401833Y-55880217D01*
X112265826Y-56088393D01*
X112165936Y-56316118D01*
X112104892Y-56557175D01*
X112104890Y-56557187D01*
X112084357Y-56804994D01*
X112084357Y-56805005D01*
X112104890Y-57052812D01*
X112104892Y-57052824D01*
X112165936Y-57293881D01*
X112265826Y-57521606D01*
X112401833Y-57729782D01*
X112401836Y-57729785D01*
X112570256Y-57912738D01*
X112766491Y-58065474D01*
X112985190Y-58183828D01*
X113220386Y-58264571D01*
X113314166Y-58280219D01*
X113377051Y-58310669D01*
X113413491Y-58370283D01*
X113411917Y-58440135D01*
X113399297Y-58467623D01*
X113377049Y-58503692D01*
X113377046Y-58503699D01*
X113322819Y-58667347D01*
X113312500Y-58768345D01*
X113312500Y-58805000D01*
X114426000Y-58805000D01*
X114493039Y-58824685D01*
X114538794Y-58877489D01*
X114550000Y-58929000D01*
X114550000Y-59181000D01*
X114530315Y-59248039D01*
X114477511Y-59293794D01*
X114426000Y-59305000D01*
X113312501Y-59305000D01*
X113312501Y-59341654D01*
X113322819Y-59442652D01*
X113377046Y-59606300D01*
X113377050Y-59606309D01*
X113399296Y-59642375D01*
X113417736Y-59709767D01*
X113396813Y-59776431D01*
X113343171Y-59821200D01*
X113314166Y-59829780D01*
X113220383Y-59845429D01*
X112985197Y-59926169D01*
X112985188Y-59926172D01*
X112766493Y-60044524D01*
X112570257Y-60197261D01*
X112401833Y-60380217D01*
X112265826Y-60588393D01*
X112165936Y-60816118D01*
X112104892Y-61057175D01*
X112104890Y-61057187D01*
X112084357Y-61304994D01*
X112084357Y-61305005D01*
X112104890Y-61552812D01*
X112104892Y-61552824D01*
X112165936Y-61793881D01*
X112265826Y-62021606D01*
X112401833Y-62229782D01*
X112401836Y-62229785D01*
X112570256Y-62412738D01*
X112766491Y-62565474D01*
X112985190Y-62683828D01*
X113220386Y-62764571D01*
X113465665Y-62805500D01*
X113714335Y-62805500D01*
X113959614Y-62764571D01*
X114194810Y-62683828D01*
X114413509Y-62565474D01*
X114609744Y-62412738D01*
X114778164Y-62229785D01*
X114914173Y-62021607D01*
X114914175Y-62021603D01*
X114921595Y-62004689D01*
X114966551Y-61951203D01*
X115033287Y-61930514D01*
X115035150Y-61930500D01*
X115777257Y-61930500D01*
X115792877Y-61932224D01*
X115792904Y-61931939D01*
X115800660Y-61932671D01*
X115800667Y-61932673D01*
X115867873Y-61930561D01*
X115871768Y-61930500D01*
X115899346Y-61930500D01*
X115899350Y-61930500D01*
X115903324Y-61929997D01*
X115914963Y-61929080D01*
X115958627Y-61927709D01*
X115977869Y-61922117D01*
X115996912Y-61918174D01*
X116016792Y-61915664D01*
X116057401Y-61899585D01*
X116068444Y-61895803D01*
X116110390Y-61883618D01*
X116127629Y-61873422D01*
X116145103Y-61864862D01*
X116163727Y-61857488D01*
X116163727Y-61857487D01*
X116163732Y-61857486D01*
X116199083Y-61831800D01*
X116208814Y-61825408D01*
X116246420Y-61803170D01*
X116260589Y-61788999D01*
X116275379Y-61776368D01*
X116291587Y-61764594D01*
X116319438Y-61730926D01*
X116327279Y-61722309D01*
X116597196Y-61452392D01*
X116615179Y-61437516D01*
X116621938Y-61432924D01*
X116658639Y-61391292D01*
X116663928Y-61385661D01*
X116675120Y-61374470D01*
X116684811Y-61361975D01*
X116689749Y-61356005D01*
X116726450Y-61314378D01*
X116730157Y-61307101D01*
X116742665Y-61287393D01*
X116747674Y-61280936D01*
X116769724Y-61229979D01*
X116773009Y-61222996D01*
X116798197Y-61173565D01*
X116799976Y-61165602D01*
X116807189Y-61143401D01*
X116810438Y-61135895D01*
X116819120Y-61081071D01*
X116820575Y-61073453D01*
X116832671Y-61019337D01*
X116832672Y-61019333D01*
X116832415Y-61011170D01*
X116833882Y-60987871D01*
X116835160Y-60979804D01*
X116829938Y-60924562D01*
X116829450Y-60916801D01*
X116828943Y-60900667D01*
X116827709Y-60861373D01*
X116825428Y-60853523D01*
X116821055Y-60830601D01*
X116820287Y-60822467D01*
X116801501Y-60770286D01*
X116799093Y-60762877D01*
X116783618Y-60709611D01*
X116783618Y-60709610D01*
X116779460Y-60702580D01*
X116769523Y-60681464D01*
X116766754Y-60673771D01*
X116766750Y-60673765D01*
X116766749Y-60673762D01*
X116764012Y-60668388D01*
X116750500Y-60612100D01*
X116750500Y-59997191D01*
X116770185Y-59930152D01*
X116809404Y-59891652D01*
X116812099Y-59889989D01*
X116835850Y-59875340D01*
X116957840Y-59753350D01*
X116966442Y-59739404D01*
X117018390Y-59692679D01*
X117071981Y-59680500D01*
X117163019Y-59680500D01*
X117230058Y-59700185D01*
X117268558Y-59739404D01*
X117277159Y-59753348D01*
X117277160Y-59753350D01*
X117399150Y-59875340D01*
X117425596Y-59891652D01*
X117472321Y-59943600D01*
X117484500Y-59997191D01*
X117484500Y-60877255D01*
X117482775Y-60892872D01*
X117483061Y-60892899D01*
X117482326Y-60900665D01*
X117484439Y-60967872D01*
X117484500Y-60971767D01*
X117484500Y-60999357D01*
X117485003Y-61003335D01*
X117485918Y-61014967D01*
X117487290Y-61058624D01*
X117487291Y-61058627D01*
X117492880Y-61077867D01*
X117496824Y-61096911D01*
X117499336Y-61116792D01*
X117515414Y-61157403D01*
X117519197Y-61168452D01*
X117531381Y-61210388D01*
X117541580Y-61227634D01*
X117550138Y-61245103D01*
X117557514Y-61263732D01*
X117583181Y-61299060D01*
X117589593Y-61308821D01*
X117611828Y-61346417D01*
X117611833Y-61346424D01*
X117625990Y-61360580D01*
X117638628Y-61375376D01*
X117650405Y-61391586D01*
X117650406Y-61391587D01*
X117684057Y-61419425D01*
X117692698Y-61427288D01*
X117954194Y-61688784D01*
X117964019Y-61701048D01*
X117964240Y-61700866D01*
X117969210Y-61706874D01*
X118018239Y-61752915D01*
X118021036Y-61755626D01*
X118040530Y-61775120D01*
X118043695Y-61777575D01*
X118052571Y-61785156D01*
X118084418Y-61815062D01*
X118084422Y-61815064D01*
X118101973Y-61824713D01*
X118118231Y-61835392D01*
X118134064Y-61847674D01*
X118169410Y-61862968D01*
X118174155Y-61865022D01*
X118184635Y-61870155D01*
X118222908Y-61891197D01*
X118242312Y-61896179D01*
X118260710Y-61902478D01*
X118279105Y-61910438D01*
X118322254Y-61917271D01*
X118333680Y-61919638D01*
X118375981Y-61930500D01*
X118396016Y-61930500D01*
X118415413Y-61932026D01*
X118435196Y-61935160D01*
X118478675Y-61931050D01*
X118490344Y-61930500D01*
X118644850Y-61930500D01*
X118711889Y-61950185D01*
X118757644Y-62002989D01*
X118758405Y-62004689D01*
X118765824Y-62021603D01*
X118901833Y-62229782D01*
X118901836Y-62229785D01*
X119070256Y-62412738D01*
X119266491Y-62565474D01*
X119485190Y-62683828D01*
X119720386Y-62764571D01*
X119965665Y-62805500D01*
X120214335Y-62805500D01*
X120459614Y-62764571D01*
X120694810Y-62683828D01*
X120913509Y-62565474D01*
X121109744Y-62412738D01*
X121278164Y-62229785D01*
X121414173Y-62021607D01*
X121514063Y-61793881D01*
X121575108Y-61552821D01*
X121575109Y-61552812D01*
X121595643Y-61305005D01*
X121595643Y-61304994D01*
X121575109Y-61057187D01*
X121575107Y-61057175D01*
X121514063Y-60816118D01*
X121414173Y-60588393D01*
X121278166Y-60380217D01*
X121256557Y-60356744D01*
X121109744Y-60197262D01*
X120913509Y-60044526D01*
X120913508Y-60044525D01*
X120913505Y-60044523D01*
X120913503Y-60044522D01*
X120776311Y-59970278D01*
X120726720Y-59921058D01*
X120711612Y-59852842D01*
X120735782Y-59787286D01*
X120747635Y-59773554D01*
X120767840Y-59753350D01*
X120776442Y-59739404D01*
X120828390Y-59692679D01*
X120881981Y-59680500D01*
X121205981Y-59680500D01*
X121216252Y-59680500D01*
X121283291Y-59700185D01*
X121308400Y-59721526D01*
X121314126Y-59727885D01*
X121314130Y-59727889D01*
X121467265Y-59839148D01*
X121467270Y-59839151D01*
X121640192Y-59916142D01*
X121640197Y-59916144D01*
X121825354Y-59955500D01*
X121825355Y-59955500D01*
X122014644Y-59955500D01*
X122014646Y-59955500D01*
X122199803Y-59916144D01*
X122372730Y-59839151D01*
X122372733Y-59839148D01*
X122378363Y-59835899D01*
X122379904Y-59838569D01*
X122432948Y-59819415D01*
X122501062Y-59834980D01*
X122549948Y-59884900D01*
X122564500Y-59943185D01*
X122564500Y-67056814D01*
X122544815Y-67123853D01*
X122492011Y-67169608D01*
X122422853Y-67179552D01*
X122379572Y-67162005D01*
X122378363Y-67164101D01*
X122372729Y-67160848D01*
X122199807Y-67083857D01*
X122199802Y-67083855D01*
X122050830Y-67052191D01*
X122014646Y-67044500D01*
X121825354Y-67044500D01*
X121792897Y-67051398D01*
X121640197Y-67083855D01*
X121640192Y-67083857D01*
X121467270Y-67160848D01*
X121467265Y-67160851D01*
X121314130Y-67272110D01*
X121314126Y-67272114D01*
X121308400Y-67278474D01*
X121248913Y-67315121D01*
X121216252Y-67319500D01*
X120881981Y-67319500D01*
X120814942Y-67299815D01*
X120776442Y-67260596D01*
X120775408Y-67258920D01*
X120767840Y-67246650D01*
X120747647Y-67226457D01*
X120714162Y-67165134D01*
X120719146Y-67095442D01*
X120761018Y-67039509D01*
X120776302Y-67029726D01*
X120913509Y-66955474D01*
X121109744Y-66802738D01*
X121278164Y-66619785D01*
X121414173Y-66411607D01*
X121514063Y-66183881D01*
X121575108Y-65942821D01*
X121575109Y-65942812D01*
X121595643Y-65695005D01*
X121595643Y-65694994D01*
X121575109Y-65447187D01*
X121575107Y-65447175D01*
X121514063Y-65206118D01*
X121414173Y-64978393D01*
X121278166Y-64770217D01*
X121208139Y-64694148D01*
X121109744Y-64587262D01*
X120913509Y-64434526D01*
X120913507Y-64434525D01*
X120913506Y-64434524D01*
X120694811Y-64316172D01*
X120694802Y-64316169D01*
X120459616Y-64235429D01*
X120214335Y-64194500D01*
X119965665Y-64194500D01*
X119720383Y-64235429D01*
X119485197Y-64316169D01*
X119485188Y-64316172D01*
X119266493Y-64434524D01*
X119070257Y-64587261D01*
X118901833Y-64770217D01*
X118765824Y-64978396D01*
X118758405Y-64995311D01*
X118713449Y-65048797D01*
X118646713Y-65069486D01*
X118644850Y-65069500D01*
X115035150Y-65069500D01*
X114968111Y-65049815D01*
X114922356Y-64997011D01*
X114921595Y-64995311D01*
X114914175Y-64978396D01*
X114778166Y-64770217D01*
X114708139Y-64694148D01*
X114609744Y-64587262D01*
X114413509Y-64434526D01*
X114413507Y-64434525D01*
X114413506Y-64434524D01*
X114194811Y-64316172D01*
X114194802Y-64316169D01*
X113959616Y-64235429D01*
X113714335Y-64194500D01*
X113465665Y-64194500D01*
X113220383Y-64235429D01*
X112985197Y-64316169D01*
X112985188Y-64316172D01*
X112766493Y-64434524D01*
X112570257Y-64587261D01*
X112401833Y-64770217D01*
X112265826Y-64978393D01*
X112165936Y-65206118D01*
X112104892Y-65447175D01*
X112104890Y-65447187D01*
X112084357Y-65694994D01*
X112084357Y-65695005D01*
X112104890Y-65942812D01*
X112104892Y-65942824D01*
X112165936Y-66183881D01*
X112265826Y-66411606D01*
X112401833Y-66619782D01*
X112401836Y-66619785D01*
X112570256Y-66802738D01*
X112766491Y-66955474D01*
X112985190Y-67073828D01*
X113220386Y-67154571D01*
X113314166Y-67170219D01*
X113377051Y-67200669D01*
X113413491Y-67260283D01*
X113411917Y-67330135D01*
X113399297Y-67357623D01*
X113377049Y-67393692D01*
X113377046Y-67393699D01*
X113322819Y-67557347D01*
X113312500Y-67658345D01*
X113312500Y-67695000D01*
X114426000Y-67695000D01*
X114493039Y-67714685D01*
X114538794Y-67767489D01*
X114550000Y-67819000D01*
X114550000Y-68071000D01*
X114530315Y-68138039D01*
X114477511Y-68183794D01*
X114426000Y-68195000D01*
X113312501Y-68195000D01*
X113312501Y-68231654D01*
X113322819Y-68332652D01*
X113377046Y-68496300D01*
X113377050Y-68496309D01*
X113399296Y-68532375D01*
X113417736Y-68599767D01*
X113396813Y-68666431D01*
X113343171Y-68711200D01*
X113314166Y-68719780D01*
X113220383Y-68735429D01*
X112985197Y-68816169D01*
X112985188Y-68816172D01*
X112766493Y-68934524D01*
X112570257Y-69087261D01*
X112401833Y-69270217D01*
X112265826Y-69478393D01*
X112165936Y-69706118D01*
X112104892Y-69947175D01*
X112104890Y-69947187D01*
X112084357Y-70194994D01*
X112084357Y-70195005D01*
X112104890Y-70442812D01*
X112104892Y-70442824D01*
X112165936Y-70683881D01*
X112265826Y-70911606D01*
X112401833Y-71119782D01*
X112401836Y-71119785D01*
X112570256Y-71302738D01*
X112766491Y-71455474D01*
X112985190Y-71573828D01*
X113220386Y-71654571D01*
X113465665Y-71695500D01*
X113714335Y-71695500D01*
X113959614Y-71654571D01*
X114194810Y-71573828D01*
X114413509Y-71455474D01*
X114609744Y-71302738D01*
X114778164Y-71119785D01*
X114914173Y-70911607D01*
X114914175Y-70911603D01*
X114921595Y-70894689D01*
X114966551Y-70841203D01*
X115033287Y-70820514D01*
X115035150Y-70820500D01*
X115777257Y-70820500D01*
X115792877Y-70822224D01*
X115792904Y-70821939D01*
X115800660Y-70822671D01*
X115800667Y-70822673D01*
X115867873Y-70820561D01*
X115871768Y-70820500D01*
X115899346Y-70820500D01*
X115899350Y-70820500D01*
X115903324Y-70819997D01*
X115914963Y-70819080D01*
X115958627Y-70817709D01*
X115977869Y-70812117D01*
X115996912Y-70808174D01*
X116016792Y-70805664D01*
X116057401Y-70789585D01*
X116068444Y-70785803D01*
X116110390Y-70773618D01*
X116127629Y-70763422D01*
X116145103Y-70754862D01*
X116163727Y-70747488D01*
X116163727Y-70747487D01*
X116163732Y-70747486D01*
X116199083Y-70721800D01*
X116208814Y-70715408D01*
X116246420Y-70693170D01*
X116260589Y-70678999D01*
X116275379Y-70666368D01*
X116291587Y-70654594D01*
X116319438Y-70620926D01*
X116327279Y-70612309D01*
X116597196Y-70342392D01*
X116615179Y-70327516D01*
X116621938Y-70322924D01*
X116658639Y-70281292D01*
X116663928Y-70275661D01*
X116675120Y-70264470D01*
X116684811Y-70251975D01*
X116689749Y-70246005D01*
X116726450Y-70204378D01*
X116730157Y-70197101D01*
X116742665Y-70177393D01*
X116747674Y-70170936D01*
X116769724Y-70119979D01*
X116773009Y-70112996D01*
X116798197Y-70063565D01*
X116799976Y-70055602D01*
X116807189Y-70033401D01*
X116810438Y-70025895D01*
X116819120Y-69971071D01*
X116820575Y-69963453D01*
X116832671Y-69909337D01*
X116832672Y-69909333D01*
X116832415Y-69901170D01*
X116833882Y-69877871D01*
X116835160Y-69869804D01*
X116829938Y-69814562D01*
X116829450Y-69806801D01*
X116828943Y-69790667D01*
X116827709Y-69751373D01*
X116825428Y-69743523D01*
X116821055Y-69720601D01*
X116820287Y-69712467D01*
X116801501Y-69660286D01*
X116799093Y-69652877D01*
X116783618Y-69599611D01*
X116783618Y-69599610D01*
X116779460Y-69592580D01*
X116769523Y-69571464D01*
X116766754Y-69563771D01*
X116766750Y-69563765D01*
X116766749Y-69563762D01*
X116764012Y-69558388D01*
X116750500Y-69502100D01*
X116750500Y-68887191D01*
X116770185Y-68820152D01*
X116809404Y-68781652D01*
X116812099Y-68779989D01*
X116835850Y-68765340D01*
X116957840Y-68643350D01*
X116966442Y-68629404D01*
X117018390Y-68582679D01*
X117071981Y-68570500D01*
X117163019Y-68570500D01*
X117230058Y-68590185D01*
X117268558Y-68629404D01*
X117277159Y-68643348D01*
X117277160Y-68643350D01*
X117399150Y-68765340D01*
X117425596Y-68781652D01*
X117472321Y-68833600D01*
X117484500Y-68887191D01*
X117484500Y-69767255D01*
X117482775Y-69782872D01*
X117483061Y-69782899D01*
X117482326Y-69790665D01*
X117484439Y-69857872D01*
X117484500Y-69861767D01*
X117484500Y-69889357D01*
X117485003Y-69893335D01*
X117485918Y-69904967D01*
X117487290Y-69948624D01*
X117487291Y-69948627D01*
X117492880Y-69967867D01*
X117496824Y-69986911D01*
X117499336Y-70006792D01*
X117515414Y-70047403D01*
X117519197Y-70058452D01*
X117531381Y-70100388D01*
X117541580Y-70117634D01*
X117550138Y-70135103D01*
X117557514Y-70153732D01*
X117583181Y-70189060D01*
X117589593Y-70198821D01*
X117611828Y-70236417D01*
X117611833Y-70236424D01*
X117625990Y-70250580D01*
X117638628Y-70265376D01*
X117650405Y-70281586D01*
X117650406Y-70281587D01*
X117684057Y-70309425D01*
X117692698Y-70317288D01*
X117954194Y-70578784D01*
X117964019Y-70591048D01*
X117964240Y-70590866D01*
X117969210Y-70596874D01*
X118018239Y-70642915D01*
X118021036Y-70645626D01*
X118040530Y-70665120D01*
X118043695Y-70667575D01*
X118052571Y-70675156D01*
X118084418Y-70705062D01*
X118084422Y-70705064D01*
X118101973Y-70714713D01*
X118118231Y-70725392D01*
X118134064Y-70737674D01*
X118169410Y-70752968D01*
X118174155Y-70755022D01*
X118184635Y-70760155D01*
X118222908Y-70781197D01*
X118242312Y-70786179D01*
X118260710Y-70792478D01*
X118279105Y-70800438D01*
X118322254Y-70807271D01*
X118333680Y-70809638D01*
X118375981Y-70820500D01*
X118396016Y-70820500D01*
X118415413Y-70822026D01*
X118435196Y-70825160D01*
X118478675Y-70821050D01*
X118490344Y-70820500D01*
X118644850Y-70820500D01*
X118711889Y-70840185D01*
X118757644Y-70892989D01*
X118758405Y-70894689D01*
X118765824Y-70911603D01*
X118901833Y-71119782D01*
X118901836Y-71119785D01*
X119070256Y-71302738D01*
X119266491Y-71455474D01*
X119485190Y-71573828D01*
X119720386Y-71654571D01*
X119965665Y-71695500D01*
X120214335Y-71695500D01*
X120459614Y-71654571D01*
X120694810Y-71573828D01*
X120913509Y-71455474D01*
X121109744Y-71302738D01*
X121278164Y-71119785D01*
X121414173Y-70911607D01*
X121514063Y-70683881D01*
X121575108Y-70442821D01*
X121575109Y-70442812D01*
X121595643Y-70195005D01*
X121595643Y-70194994D01*
X121575109Y-69947187D01*
X121575107Y-69947175D01*
X121514063Y-69706118D01*
X121414173Y-69478393D01*
X121278166Y-69270217D01*
X121256557Y-69246744D01*
X121109744Y-69087262D01*
X120913509Y-68934526D01*
X120913508Y-68934525D01*
X120913505Y-68934523D01*
X120913503Y-68934522D01*
X120776311Y-68860278D01*
X120726720Y-68811058D01*
X120711612Y-68742842D01*
X120735782Y-68677286D01*
X120747635Y-68663554D01*
X120767840Y-68643350D01*
X120776442Y-68629404D01*
X120828390Y-68582679D01*
X120881981Y-68570500D01*
X121216252Y-68570500D01*
X121283291Y-68590185D01*
X121308400Y-68611526D01*
X121314126Y-68617885D01*
X121314130Y-68617889D01*
X121467265Y-68729148D01*
X121467270Y-68729151D01*
X121640192Y-68806142D01*
X121640197Y-68806144D01*
X121825354Y-68845500D01*
X121825355Y-68845500D01*
X122014644Y-68845500D01*
X122014646Y-68845500D01*
X122199803Y-68806144D01*
X122372730Y-68729151D01*
X122372733Y-68729148D01*
X122378363Y-68725899D01*
X122379904Y-68728569D01*
X122432948Y-68709415D01*
X122501062Y-68724980D01*
X122549948Y-68774900D01*
X122564500Y-68833185D01*
X122564500Y-75946814D01*
X122544815Y-76013853D01*
X122492011Y-76059608D01*
X122422853Y-76069552D01*
X122379572Y-76052005D01*
X122378363Y-76054101D01*
X122372729Y-76050848D01*
X122199807Y-75973857D01*
X122199802Y-75973855D01*
X122050830Y-75942191D01*
X122014646Y-75934500D01*
X121825354Y-75934500D01*
X121792897Y-75941398D01*
X121640197Y-75973855D01*
X121640192Y-75973857D01*
X121467270Y-76050848D01*
X121467265Y-76050851D01*
X121314130Y-76162110D01*
X121314126Y-76162114D01*
X121308400Y-76168474D01*
X121248913Y-76205121D01*
X121216252Y-76209500D01*
X120881981Y-76209500D01*
X120814942Y-76189815D01*
X120776442Y-76150596D01*
X120775408Y-76148920D01*
X120767840Y-76136650D01*
X120747647Y-76116457D01*
X120714162Y-76055134D01*
X120719146Y-75985442D01*
X120761018Y-75929509D01*
X120776302Y-75919726D01*
X120913509Y-75845474D01*
X121109744Y-75692738D01*
X121278164Y-75509785D01*
X121414173Y-75301607D01*
X121514063Y-75073881D01*
X121575108Y-74832821D01*
X121575109Y-74832812D01*
X121595643Y-74585005D01*
X121595643Y-74584994D01*
X121575109Y-74337187D01*
X121575107Y-74337175D01*
X121514063Y-74096118D01*
X121414173Y-73868393D01*
X121278166Y-73660217D01*
X121208139Y-73584148D01*
X121109744Y-73477262D01*
X120913509Y-73324526D01*
X120913507Y-73324525D01*
X120913506Y-73324524D01*
X120694811Y-73206172D01*
X120694802Y-73206169D01*
X120459616Y-73125429D01*
X120214335Y-73084500D01*
X119965665Y-73084500D01*
X119720383Y-73125429D01*
X119485197Y-73206169D01*
X119485188Y-73206172D01*
X119266493Y-73324524D01*
X119070257Y-73477261D01*
X118901833Y-73660217D01*
X118765824Y-73868396D01*
X118758405Y-73885311D01*
X118713449Y-73938797D01*
X118646713Y-73959486D01*
X118644850Y-73959500D01*
X115035150Y-73959500D01*
X114968111Y-73939815D01*
X114922356Y-73887011D01*
X114921595Y-73885311D01*
X114914175Y-73868396D01*
X114778166Y-73660217D01*
X114708139Y-73584148D01*
X114609744Y-73477262D01*
X114413509Y-73324526D01*
X114413507Y-73324525D01*
X114413506Y-73324524D01*
X114194811Y-73206172D01*
X114194802Y-73206169D01*
X113959616Y-73125429D01*
X113714335Y-73084500D01*
X113465665Y-73084500D01*
X113220383Y-73125429D01*
X112985197Y-73206169D01*
X112985188Y-73206172D01*
X112766493Y-73324524D01*
X112570257Y-73477261D01*
X112401833Y-73660217D01*
X112265826Y-73868393D01*
X112165936Y-74096118D01*
X112104892Y-74337175D01*
X112104890Y-74337187D01*
X112084357Y-74584994D01*
X112084357Y-74585005D01*
X112104890Y-74832812D01*
X112104892Y-74832824D01*
X112165936Y-75073881D01*
X112265826Y-75301606D01*
X112401833Y-75509782D01*
X112401836Y-75509785D01*
X112570256Y-75692738D01*
X112766491Y-75845474D01*
X112985190Y-75963828D01*
X113220386Y-76044571D01*
X113314166Y-76060219D01*
X113377051Y-76090669D01*
X113413491Y-76150283D01*
X113411917Y-76220135D01*
X113399297Y-76247623D01*
X113377049Y-76283692D01*
X113377046Y-76283699D01*
X113322819Y-76447347D01*
X113312500Y-76548345D01*
X113312500Y-76585000D01*
X114426000Y-76585000D01*
X114493039Y-76604685D01*
X114538794Y-76657489D01*
X114550000Y-76709000D01*
X114550000Y-76961000D01*
X114530315Y-77028039D01*
X114477511Y-77073794D01*
X114426000Y-77085000D01*
X113312501Y-77085000D01*
X113312501Y-77121654D01*
X113322819Y-77222652D01*
X113377046Y-77386300D01*
X113377050Y-77386309D01*
X113399296Y-77422375D01*
X113417736Y-77489767D01*
X113396813Y-77556431D01*
X113343171Y-77601200D01*
X113314166Y-77609780D01*
X113220383Y-77625429D01*
X112985197Y-77706169D01*
X112985188Y-77706172D01*
X112766493Y-77824524D01*
X112570257Y-77977261D01*
X112401833Y-78160217D01*
X112265826Y-78368393D01*
X112165936Y-78596118D01*
X112104892Y-78837175D01*
X112104890Y-78837187D01*
X112084357Y-79084994D01*
X112084357Y-79085005D01*
X110490500Y-79085005D01*
X110490500Y-45091961D01*
X110491279Y-45078086D01*
X110491281Y-45078069D01*
X110493353Y-45059670D01*
X110493599Y-45057659D01*
X110508234Y-44946496D01*
X110514125Y-44921754D01*
X110529025Y-44879172D01*
X110531470Y-44872767D01*
X110561837Y-44799456D01*
X110571381Y-44780980D01*
X110598385Y-44738003D01*
X110604969Y-44728538D01*
X110650112Y-44669707D01*
X110660778Y-44657545D01*
X110697545Y-44620778D01*
X110709707Y-44610112D01*
X110768538Y-44564969D01*
X110778003Y-44558385D01*
X110820980Y-44531381D01*
X110839456Y-44521837D01*
X110912767Y-44491470D01*
X110919172Y-44489025D01*
X110961754Y-44474125D01*
X110986496Y-44468234D01*
X111097659Y-44453599D01*
X111099670Y-44453353D01*
X111116591Y-44451447D01*
X111118087Y-44451279D01*
X111131962Y-44450500D01*
X130168037Y-44450500D01*
X130181912Y-44451278D01*
G37*
G04 #@! TD.AperFunction*
M02*
