G04 #@! TF.GenerationSoftware,KiCad,Pcbnew,7.0.11-7.0.11~ubuntu20.04.1*
G04 #@! TF.CreationDate,2024-08-22T00:47:31+02:00*
G04 #@! TF.ProjectId,kicad-pmod-semaphore,6b696361-642d-4706-9d6f-642d73656d61,1.0*
G04 #@! TF.SameCoordinates,Original*
G04 #@! TF.FileFunction,Legend,Bot*
G04 #@! TF.FilePolarity,Positive*
%FSLAX46Y46*%
G04 Gerber Fmt 4.6, Leading zero omitted, Abs format (unit mm)*
G04 Created by KiCad (PCBNEW 7.0.11-7.0.11~ubuntu20.04.1) date 2024-08-22 00:47:31*
%MOMM*%
%LPD*%
G01*
G04 APERTURE LIST*
G04 Aperture macros list*
%AMRoundRect*
0 Rectangle with rounded corners*
0 $1 Rounding radius*
0 $2 $3 $4 $5 $6 $7 $8 $9 X,Y pos of 4 corners*
0 Add a 4 corners polygon primitive as box body*
4,1,4,$2,$3,$4,$5,$6,$7,$8,$9,$2,$3,0*
0 Add four circle primitives for the rounded corners*
1,1,$1+$1,$2,$3*
1,1,$1+$1,$4,$5*
1,1,$1+$1,$6,$7*
1,1,$1+$1,$8,$9*
0 Add four rect primitives between the rounded corners*
20,1,$1+$1,$2,$3,$4,$5,0*
20,1,$1+$1,$4,$5,$6,$7,0*
20,1,$1+$1,$6,$7,$8,$9,0*
20,1,$1+$1,$8,$9,$2,$3,0*%
G04 Aperture macros list end*
%ADD10C,0.100000*%
%ADD11C,0.150000*%
%ADD12C,0.120000*%
%ADD13C,2.000000*%
%ADD14RoundRect,0.237500X-0.237500X0.250000X-0.237500X-0.250000X0.237500X-0.250000X0.237500X0.250000X0*%
%ADD15RoundRect,0.237500X0.250000X0.237500X-0.250000X0.237500X-0.250000X-0.237500X0.250000X-0.237500X0*%
%ADD16R,1.700000X1.700000*%
%ADD17O,1.700000X1.700000*%
%ADD18C,2.500000*%
%ADD19R,1.800000X1.800000*%
%ADD20C,1.800000*%
G04 APERTURE END LIST*
D10*
X114360133Y-52326265D02*
X114360133Y-52935789D01*
X114664895Y-52631027D02*
X114055371Y-52631027D01*
X113864895Y-53240550D02*
X113864895Y-53735788D01*
X113864895Y-53735788D02*
X114169657Y-53469122D01*
X114169657Y-53469122D02*
X114169657Y-53583407D01*
X114169657Y-53583407D02*
X114207752Y-53659598D01*
X114207752Y-53659598D02*
X114245847Y-53697693D01*
X114245847Y-53697693D02*
X114322038Y-53735788D01*
X114322038Y-53735788D02*
X114512514Y-53735788D01*
X114512514Y-53735788D02*
X114588704Y-53697693D01*
X114588704Y-53697693D02*
X114626800Y-53659598D01*
X114626800Y-53659598D02*
X114664895Y-53583407D01*
X114664895Y-53583407D02*
X114664895Y-53354836D01*
X114664895Y-53354836D02*
X114626800Y-53278645D01*
X114626800Y-53278645D02*
X114588704Y-53240550D01*
X113864895Y-53964360D02*
X114664895Y-54231027D01*
X114664895Y-54231027D02*
X113864895Y-54497693D01*
X113864895Y-54688169D02*
X113864895Y-55183407D01*
X113864895Y-55183407D02*
X114169657Y-54916741D01*
X114169657Y-54916741D02*
X114169657Y-55031026D01*
X114169657Y-55031026D02*
X114207752Y-55107217D01*
X114207752Y-55107217D02*
X114245847Y-55145312D01*
X114245847Y-55145312D02*
X114322038Y-55183407D01*
X114322038Y-55183407D02*
X114512514Y-55183407D01*
X114512514Y-55183407D02*
X114588704Y-55145312D01*
X114588704Y-55145312D02*
X114626800Y-55107217D01*
X114626800Y-55107217D02*
X114664895Y-55031026D01*
X114664895Y-55031026D02*
X114664895Y-54802455D01*
X114664895Y-54802455D02*
X114626800Y-54726264D01*
X114626800Y-54726264D02*
X114588704Y-54688169D01*
X116442990Y-52745312D02*
X116404895Y-52669122D01*
X116404895Y-52669122D02*
X116404895Y-52554836D01*
X116404895Y-52554836D02*
X116442990Y-52440550D01*
X116442990Y-52440550D02*
X116519180Y-52364360D01*
X116519180Y-52364360D02*
X116595371Y-52326265D01*
X116595371Y-52326265D02*
X116747752Y-52288169D01*
X116747752Y-52288169D02*
X116862038Y-52288169D01*
X116862038Y-52288169D02*
X117014419Y-52326265D01*
X117014419Y-52326265D02*
X117090609Y-52364360D01*
X117090609Y-52364360D02*
X117166800Y-52440550D01*
X117166800Y-52440550D02*
X117204895Y-52554836D01*
X117204895Y-52554836D02*
X117204895Y-52631027D01*
X117204895Y-52631027D02*
X117166800Y-52745312D01*
X117166800Y-52745312D02*
X117128704Y-52783408D01*
X117128704Y-52783408D02*
X116862038Y-52783408D01*
X116862038Y-52783408D02*
X116862038Y-52631027D01*
X117204895Y-53126265D02*
X116404895Y-53126265D01*
X116404895Y-53126265D02*
X117204895Y-53583408D01*
X117204895Y-53583408D02*
X116404895Y-53583408D01*
X117204895Y-53964360D02*
X116404895Y-53964360D01*
X116404895Y-53964360D02*
X116404895Y-54154836D01*
X116404895Y-54154836D02*
X116442990Y-54269122D01*
X116442990Y-54269122D02*
X116519180Y-54345312D01*
X116519180Y-54345312D02*
X116595371Y-54383407D01*
X116595371Y-54383407D02*
X116747752Y-54421503D01*
X116747752Y-54421503D02*
X116862038Y-54421503D01*
X116862038Y-54421503D02*
X117014419Y-54383407D01*
X117014419Y-54383407D02*
X117090609Y-54345312D01*
X117090609Y-54345312D02*
X117166800Y-54269122D01*
X117166800Y-54269122D02*
X117204895Y-54154836D01*
X117204895Y-54154836D02*
X117204895Y-53964360D01*
X119744895Y-52707217D02*
X119744895Y-52326265D01*
X119744895Y-52326265D02*
X118944895Y-52326265D01*
X119211561Y-53316741D02*
X119744895Y-53316741D01*
X118906800Y-53126265D02*
X119478228Y-52935788D01*
X119478228Y-52935788D02*
X119478228Y-53431027D01*
X122284895Y-52707217D02*
X122284895Y-52326265D01*
X122284895Y-52326265D02*
X121484895Y-52326265D01*
X121484895Y-52897693D02*
X121484895Y-53392931D01*
X121484895Y-53392931D02*
X121789657Y-53126265D01*
X121789657Y-53126265D02*
X121789657Y-53240550D01*
X121789657Y-53240550D02*
X121827752Y-53316741D01*
X121827752Y-53316741D02*
X121865847Y-53354836D01*
X121865847Y-53354836D02*
X121942038Y-53392931D01*
X121942038Y-53392931D02*
X122132514Y-53392931D01*
X122132514Y-53392931D02*
X122208704Y-53354836D01*
X122208704Y-53354836D02*
X122246800Y-53316741D01*
X122246800Y-53316741D02*
X122284895Y-53240550D01*
X122284895Y-53240550D02*
X122284895Y-53011979D01*
X122284895Y-53011979D02*
X122246800Y-52935788D01*
X122246800Y-52935788D02*
X122208704Y-52897693D01*
X124824895Y-52707217D02*
X124824895Y-52326265D01*
X124824895Y-52326265D02*
X124024895Y-52326265D01*
X124101085Y-52935788D02*
X124062990Y-52973884D01*
X124062990Y-52973884D02*
X124024895Y-53050074D01*
X124024895Y-53050074D02*
X124024895Y-53240550D01*
X124024895Y-53240550D02*
X124062990Y-53316741D01*
X124062990Y-53316741D02*
X124101085Y-53354836D01*
X124101085Y-53354836D02*
X124177276Y-53392931D01*
X124177276Y-53392931D02*
X124253466Y-53392931D01*
X124253466Y-53392931D02*
X124367752Y-53354836D01*
X124367752Y-53354836D02*
X124824895Y-52897693D01*
X124824895Y-52897693D02*
X124824895Y-53392931D01*
X127364895Y-52707217D02*
X127364895Y-52326265D01*
X127364895Y-52326265D02*
X126564895Y-52326265D01*
X127364895Y-53392931D02*
X127364895Y-52935788D01*
X127364895Y-53164360D02*
X126564895Y-53164360D01*
X126564895Y-53164360D02*
X126679180Y-53088169D01*
X126679180Y-53088169D02*
X126755371Y-53011979D01*
X126755371Y-53011979D02*
X126793466Y-52935788D01*
X113864895Y-44828972D02*
X113864895Y-45324210D01*
X113864895Y-45324210D02*
X114169657Y-45057544D01*
X114169657Y-45057544D02*
X114169657Y-45171829D01*
X114169657Y-45171829D02*
X114207752Y-45248020D01*
X114207752Y-45248020D02*
X114245847Y-45286115D01*
X114245847Y-45286115D02*
X114322038Y-45324210D01*
X114322038Y-45324210D02*
X114512514Y-45324210D01*
X114512514Y-45324210D02*
X114588704Y-45286115D01*
X114588704Y-45286115D02*
X114626800Y-45248020D01*
X114626800Y-45248020D02*
X114664895Y-45171829D01*
X114664895Y-45171829D02*
X114664895Y-44943258D01*
X114664895Y-44943258D02*
X114626800Y-44867067D01*
X114626800Y-44867067D02*
X114588704Y-44828972D01*
X113864895Y-45552782D02*
X114664895Y-45819449D01*
X114664895Y-45819449D02*
X113864895Y-46086115D01*
X113864895Y-46276591D02*
X113864895Y-46771829D01*
X113864895Y-46771829D02*
X114169657Y-46505163D01*
X114169657Y-46505163D02*
X114169657Y-46619448D01*
X114169657Y-46619448D02*
X114207752Y-46695639D01*
X114207752Y-46695639D02*
X114245847Y-46733734D01*
X114245847Y-46733734D02*
X114322038Y-46771829D01*
X114322038Y-46771829D02*
X114512514Y-46771829D01*
X114512514Y-46771829D02*
X114588704Y-46733734D01*
X114588704Y-46733734D02*
X114626800Y-46695639D01*
X114626800Y-46695639D02*
X114664895Y-46619448D01*
X114664895Y-46619448D02*
X114664895Y-46390877D01*
X114664895Y-46390877D02*
X114626800Y-46314686D01*
X114626800Y-46314686D02*
X114588704Y-46276591D01*
X116671561Y-45286114D02*
X117319180Y-45286114D01*
X117319180Y-45286114D02*
X117395371Y-45248019D01*
X117395371Y-45248019D02*
X117433466Y-45209923D01*
X117433466Y-45209923D02*
X117471561Y-45133733D01*
X117471561Y-45133733D02*
X117471561Y-45019447D01*
X117471561Y-45019447D02*
X117433466Y-44943257D01*
X117166800Y-45286114D02*
X117204895Y-45209923D01*
X117204895Y-45209923D02*
X117204895Y-45057542D01*
X117204895Y-45057542D02*
X117166800Y-44981352D01*
X117166800Y-44981352D02*
X117128704Y-44943257D01*
X117128704Y-44943257D02*
X117052514Y-44905161D01*
X117052514Y-44905161D02*
X116823942Y-44905161D01*
X116823942Y-44905161D02*
X116747752Y-44943257D01*
X116747752Y-44943257D02*
X116709657Y-44981352D01*
X116709657Y-44981352D02*
X116671561Y-45057542D01*
X116671561Y-45057542D02*
X116671561Y-45209923D01*
X116671561Y-45209923D02*
X116709657Y-45286114D01*
X116671561Y-45667067D02*
X117204895Y-45667067D01*
X116747752Y-45667067D02*
X116709657Y-45705162D01*
X116709657Y-45705162D02*
X116671561Y-45781352D01*
X116671561Y-45781352D02*
X116671561Y-45895638D01*
X116671561Y-45895638D02*
X116709657Y-45971829D01*
X116709657Y-45971829D02*
X116785847Y-46009924D01*
X116785847Y-46009924D02*
X117204895Y-46009924D01*
X117204895Y-46733734D02*
X116404895Y-46733734D01*
X117166800Y-46733734D02*
X117204895Y-46657543D01*
X117204895Y-46657543D02*
X117204895Y-46505162D01*
X117204895Y-46505162D02*
X117166800Y-46428972D01*
X117166800Y-46428972D02*
X117128704Y-46390877D01*
X117128704Y-46390877D02*
X117052514Y-46352781D01*
X117052514Y-46352781D02*
X116823942Y-46352781D01*
X116823942Y-46352781D02*
X116747752Y-46390877D01*
X116747752Y-46390877D02*
X116709657Y-46428972D01*
X116709657Y-46428972D02*
X116671561Y-46505162D01*
X116671561Y-46505162D02*
X116671561Y-46657543D01*
X116671561Y-46657543D02*
X116709657Y-46733734D01*
X119325847Y-45819448D02*
X119363942Y-45933734D01*
X119363942Y-45933734D02*
X119402038Y-45971829D01*
X119402038Y-45971829D02*
X119478228Y-46009925D01*
X119478228Y-46009925D02*
X119592514Y-46009925D01*
X119592514Y-46009925D02*
X119668704Y-45971829D01*
X119668704Y-45971829D02*
X119706800Y-45933734D01*
X119706800Y-45933734D02*
X119744895Y-45857544D01*
X119744895Y-45857544D02*
X119744895Y-45552782D01*
X119744895Y-45552782D02*
X118944895Y-45552782D01*
X118944895Y-45552782D02*
X118944895Y-45819448D01*
X118944895Y-45819448D02*
X118982990Y-45895639D01*
X118982990Y-45895639D02*
X119021085Y-45933734D01*
X119021085Y-45933734D02*
X119097276Y-45971829D01*
X119097276Y-45971829D02*
X119173466Y-45971829D01*
X119173466Y-45971829D02*
X119249657Y-45933734D01*
X119249657Y-45933734D02*
X119287752Y-45895639D01*
X119287752Y-45895639D02*
X119325847Y-45819448D01*
X119325847Y-45819448D02*
X119325847Y-45552782D01*
X119211561Y-46695639D02*
X119744895Y-46695639D01*
X118906800Y-46505163D02*
X119478228Y-46314686D01*
X119478228Y-46314686D02*
X119478228Y-46809925D01*
X121865847Y-45819448D02*
X121903942Y-45933734D01*
X121903942Y-45933734D02*
X121942038Y-45971829D01*
X121942038Y-45971829D02*
X122018228Y-46009925D01*
X122018228Y-46009925D02*
X122132514Y-46009925D01*
X122132514Y-46009925D02*
X122208704Y-45971829D01*
X122208704Y-45971829D02*
X122246800Y-45933734D01*
X122246800Y-45933734D02*
X122284895Y-45857544D01*
X122284895Y-45857544D02*
X122284895Y-45552782D01*
X122284895Y-45552782D02*
X121484895Y-45552782D01*
X121484895Y-45552782D02*
X121484895Y-45819448D01*
X121484895Y-45819448D02*
X121522990Y-45895639D01*
X121522990Y-45895639D02*
X121561085Y-45933734D01*
X121561085Y-45933734D02*
X121637276Y-45971829D01*
X121637276Y-45971829D02*
X121713466Y-45971829D01*
X121713466Y-45971829D02*
X121789657Y-45933734D01*
X121789657Y-45933734D02*
X121827752Y-45895639D01*
X121827752Y-45895639D02*
X121865847Y-45819448D01*
X121865847Y-45819448D02*
X121865847Y-45552782D01*
X121484895Y-46276591D02*
X121484895Y-46771829D01*
X121484895Y-46771829D02*
X121789657Y-46505163D01*
X121789657Y-46505163D02*
X121789657Y-46619448D01*
X121789657Y-46619448D02*
X121827752Y-46695639D01*
X121827752Y-46695639D02*
X121865847Y-46733734D01*
X121865847Y-46733734D02*
X121942038Y-46771829D01*
X121942038Y-46771829D02*
X122132514Y-46771829D01*
X122132514Y-46771829D02*
X122208704Y-46733734D01*
X122208704Y-46733734D02*
X122246800Y-46695639D01*
X122246800Y-46695639D02*
X122284895Y-46619448D01*
X122284895Y-46619448D02*
X122284895Y-46390877D01*
X122284895Y-46390877D02*
X122246800Y-46314686D01*
X122246800Y-46314686D02*
X122208704Y-46276591D01*
X124405847Y-45819448D02*
X124443942Y-45933734D01*
X124443942Y-45933734D02*
X124482038Y-45971829D01*
X124482038Y-45971829D02*
X124558228Y-46009925D01*
X124558228Y-46009925D02*
X124672514Y-46009925D01*
X124672514Y-46009925D02*
X124748704Y-45971829D01*
X124748704Y-45971829D02*
X124786800Y-45933734D01*
X124786800Y-45933734D02*
X124824895Y-45857544D01*
X124824895Y-45857544D02*
X124824895Y-45552782D01*
X124824895Y-45552782D02*
X124024895Y-45552782D01*
X124024895Y-45552782D02*
X124024895Y-45819448D01*
X124024895Y-45819448D02*
X124062990Y-45895639D01*
X124062990Y-45895639D02*
X124101085Y-45933734D01*
X124101085Y-45933734D02*
X124177276Y-45971829D01*
X124177276Y-45971829D02*
X124253466Y-45971829D01*
X124253466Y-45971829D02*
X124329657Y-45933734D01*
X124329657Y-45933734D02*
X124367752Y-45895639D01*
X124367752Y-45895639D02*
X124405847Y-45819448D01*
X124405847Y-45819448D02*
X124405847Y-45552782D01*
X124101085Y-46314686D02*
X124062990Y-46352782D01*
X124062990Y-46352782D02*
X124024895Y-46428972D01*
X124024895Y-46428972D02*
X124024895Y-46619448D01*
X124024895Y-46619448D02*
X124062990Y-46695639D01*
X124062990Y-46695639D02*
X124101085Y-46733734D01*
X124101085Y-46733734D02*
X124177276Y-46771829D01*
X124177276Y-46771829D02*
X124253466Y-46771829D01*
X124253466Y-46771829D02*
X124367752Y-46733734D01*
X124367752Y-46733734D02*
X124824895Y-46276591D01*
X124824895Y-46276591D02*
X124824895Y-46771829D01*
X126945847Y-45819448D02*
X126983942Y-45933734D01*
X126983942Y-45933734D02*
X127022038Y-45971829D01*
X127022038Y-45971829D02*
X127098228Y-46009925D01*
X127098228Y-46009925D02*
X127212514Y-46009925D01*
X127212514Y-46009925D02*
X127288704Y-45971829D01*
X127288704Y-45971829D02*
X127326800Y-45933734D01*
X127326800Y-45933734D02*
X127364895Y-45857544D01*
X127364895Y-45857544D02*
X127364895Y-45552782D01*
X127364895Y-45552782D02*
X126564895Y-45552782D01*
X126564895Y-45552782D02*
X126564895Y-45819448D01*
X126564895Y-45819448D02*
X126602990Y-45895639D01*
X126602990Y-45895639D02*
X126641085Y-45933734D01*
X126641085Y-45933734D02*
X126717276Y-45971829D01*
X126717276Y-45971829D02*
X126793466Y-45971829D01*
X126793466Y-45971829D02*
X126869657Y-45933734D01*
X126869657Y-45933734D02*
X126907752Y-45895639D01*
X126907752Y-45895639D02*
X126945847Y-45819448D01*
X126945847Y-45819448D02*
X126945847Y-45552782D01*
X127364895Y-46771829D02*
X127364895Y-46314686D01*
X127364895Y-46543258D02*
X126564895Y-46543258D01*
X126564895Y-46543258D02*
X126679180Y-46467067D01*
X126679180Y-46467067D02*
X126755371Y-46390877D01*
X126755371Y-46390877D02*
X126793466Y-46314686D01*
D11*
X124754819Y-84169642D02*
X124278628Y-83836309D01*
X124754819Y-83598214D02*
X123754819Y-83598214D01*
X123754819Y-83598214D02*
X123754819Y-83979166D01*
X123754819Y-83979166D02*
X123802438Y-84074404D01*
X123802438Y-84074404D02*
X123850057Y-84122023D01*
X123850057Y-84122023D02*
X123945295Y-84169642D01*
X123945295Y-84169642D02*
X124088152Y-84169642D01*
X124088152Y-84169642D02*
X124183390Y-84122023D01*
X124183390Y-84122023D02*
X124231009Y-84074404D01*
X124231009Y-84074404D02*
X124278628Y-83979166D01*
X124278628Y-83979166D02*
X124278628Y-83598214D01*
X124754819Y-85122023D02*
X124754819Y-84550595D01*
X124754819Y-84836309D02*
X123754819Y-84836309D01*
X123754819Y-84836309D02*
X123897676Y-84741071D01*
X123897676Y-84741071D02*
X123992914Y-84645833D01*
X123992914Y-84645833D02*
X124040533Y-84550595D01*
X123850057Y-85502976D02*
X123802438Y-85550595D01*
X123802438Y-85550595D02*
X123754819Y-85645833D01*
X123754819Y-85645833D02*
X123754819Y-85883928D01*
X123754819Y-85883928D02*
X123802438Y-85979166D01*
X123802438Y-85979166D02*
X123850057Y-86026785D01*
X123850057Y-86026785D02*
X123945295Y-86074404D01*
X123945295Y-86074404D02*
X124040533Y-86074404D01*
X124040533Y-86074404D02*
X124183390Y-86026785D01*
X124183390Y-86026785D02*
X124754819Y-85455357D01*
X124754819Y-85455357D02*
X124754819Y-86074404D01*
X124754819Y-72739642D02*
X124278628Y-72406309D01*
X124754819Y-72168214D02*
X123754819Y-72168214D01*
X123754819Y-72168214D02*
X123754819Y-72549166D01*
X123754819Y-72549166D02*
X123802438Y-72644404D01*
X123802438Y-72644404D02*
X123850057Y-72692023D01*
X123850057Y-72692023D02*
X123945295Y-72739642D01*
X123945295Y-72739642D02*
X124088152Y-72739642D01*
X124088152Y-72739642D02*
X124183390Y-72692023D01*
X124183390Y-72692023D02*
X124231009Y-72644404D01*
X124231009Y-72644404D02*
X124278628Y-72549166D01*
X124278628Y-72549166D02*
X124278628Y-72168214D01*
X124754819Y-73692023D02*
X124754819Y-73120595D01*
X124754819Y-73406309D02*
X123754819Y-73406309D01*
X123754819Y-73406309D02*
X123897676Y-73311071D01*
X123897676Y-73311071D02*
X123992914Y-73215833D01*
X123992914Y-73215833D02*
X124040533Y-73120595D01*
X124754819Y-74644404D02*
X124754819Y-74072976D01*
X124754819Y-74358690D02*
X123754819Y-74358690D01*
X123754819Y-74358690D02*
X123897676Y-74263452D01*
X123897676Y-74263452D02*
X123992914Y-74168214D01*
X123992914Y-74168214D02*
X124040533Y-74072976D01*
X124754819Y-63849642D02*
X124278628Y-63516309D01*
X124754819Y-63278214D02*
X123754819Y-63278214D01*
X123754819Y-63278214D02*
X123754819Y-63659166D01*
X123754819Y-63659166D02*
X123802438Y-63754404D01*
X123802438Y-63754404D02*
X123850057Y-63802023D01*
X123850057Y-63802023D02*
X123945295Y-63849642D01*
X123945295Y-63849642D02*
X124088152Y-63849642D01*
X124088152Y-63849642D02*
X124183390Y-63802023D01*
X124183390Y-63802023D02*
X124231009Y-63754404D01*
X124231009Y-63754404D02*
X124278628Y-63659166D01*
X124278628Y-63659166D02*
X124278628Y-63278214D01*
X124754819Y-64802023D02*
X124754819Y-64230595D01*
X124754819Y-64516309D02*
X123754819Y-64516309D01*
X123754819Y-64516309D02*
X123897676Y-64421071D01*
X123897676Y-64421071D02*
X123992914Y-64325833D01*
X123992914Y-64325833D02*
X124040533Y-64230595D01*
X123754819Y-65421071D02*
X123754819Y-65516309D01*
X123754819Y-65516309D02*
X123802438Y-65611547D01*
X123802438Y-65611547D02*
X123850057Y-65659166D01*
X123850057Y-65659166D02*
X123945295Y-65706785D01*
X123945295Y-65706785D02*
X124135771Y-65754404D01*
X124135771Y-65754404D02*
X124373866Y-65754404D01*
X124373866Y-65754404D02*
X124564342Y-65706785D01*
X124564342Y-65706785D02*
X124659580Y-65659166D01*
X124659580Y-65659166D02*
X124707200Y-65611547D01*
X124707200Y-65611547D02*
X124754819Y-65516309D01*
X124754819Y-65516309D02*
X124754819Y-65421071D01*
X124754819Y-65421071D02*
X124707200Y-65325833D01*
X124707200Y-65325833D02*
X124659580Y-65278214D01*
X124659580Y-65278214D02*
X124564342Y-65230595D01*
X124564342Y-65230595D02*
X124373866Y-65182976D01*
X124373866Y-65182976D02*
X124135771Y-65182976D01*
X124135771Y-65182976D02*
X123945295Y-65230595D01*
X123945295Y-65230595D02*
X123850057Y-65278214D01*
X123850057Y-65278214D02*
X123802438Y-65325833D01*
X123802438Y-65325833D02*
X123754819Y-65421071D01*
X124754819Y-55435833D02*
X124278628Y-55102500D01*
X124754819Y-54864405D02*
X123754819Y-54864405D01*
X123754819Y-54864405D02*
X123754819Y-55245357D01*
X123754819Y-55245357D02*
X123802438Y-55340595D01*
X123802438Y-55340595D02*
X123850057Y-55388214D01*
X123850057Y-55388214D02*
X123945295Y-55435833D01*
X123945295Y-55435833D02*
X124088152Y-55435833D01*
X124088152Y-55435833D02*
X124183390Y-55388214D01*
X124183390Y-55388214D02*
X124231009Y-55340595D01*
X124231009Y-55340595D02*
X124278628Y-55245357D01*
X124278628Y-55245357D02*
X124278628Y-54864405D01*
X124754819Y-55912024D02*
X124754819Y-56102500D01*
X124754819Y-56102500D02*
X124707200Y-56197738D01*
X124707200Y-56197738D02*
X124659580Y-56245357D01*
X124659580Y-56245357D02*
X124516723Y-56340595D01*
X124516723Y-56340595D02*
X124326247Y-56388214D01*
X124326247Y-56388214D02*
X123945295Y-56388214D01*
X123945295Y-56388214D02*
X123850057Y-56340595D01*
X123850057Y-56340595D02*
X123802438Y-56292976D01*
X123802438Y-56292976D02*
X123754819Y-56197738D01*
X123754819Y-56197738D02*
X123754819Y-56007262D01*
X123754819Y-56007262D02*
X123802438Y-55912024D01*
X123802438Y-55912024D02*
X123850057Y-55864405D01*
X123850057Y-55864405D02*
X123945295Y-55816786D01*
X123945295Y-55816786D02*
X124183390Y-55816786D01*
X124183390Y-55816786D02*
X124278628Y-55864405D01*
X124278628Y-55864405D02*
X124326247Y-55912024D01*
X124326247Y-55912024D02*
X124373866Y-56007262D01*
X124373866Y-56007262D02*
X124373866Y-56197738D01*
X124373866Y-56197738D02*
X124326247Y-56292976D01*
X124326247Y-56292976D02*
X124278628Y-56340595D01*
X124278628Y-56340595D02*
X124183390Y-56388214D01*
X112561666Y-88719819D02*
X112894999Y-88243628D01*
X113133094Y-88719819D02*
X113133094Y-87719819D01*
X113133094Y-87719819D02*
X112752142Y-87719819D01*
X112752142Y-87719819D02*
X112656904Y-87767438D01*
X112656904Y-87767438D02*
X112609285Y-87815057D01*
X112609285Y-87815057D02*
X112561666Y-87910295D01*
X112561666Y-87910295D02*
X112561666Y-88053152D01*
X112561666Y-88053152D02*
X112609285Y-88148390D01*
X112609285Y-88148390D02*
X112656904Y-88196009D01*
X112656904Y-88196009D02*
X112752142Y-88243628D01*
X112752142Y-88243628D02*
X113133094Y-88243628D01*
X111990237Y-88148390D02*
X112085475Y-88100771D01*
X112085475Y-88100771D02*
X112133094Y-88053152D01*
X112133094Y-88053152D02*
X112180713Y-87957914D01*
X112180713Y-87957914D02*
X112180713Y-87910295D01*
X112180713Y-87910295D02*
X112133094Y-87815057D01*
X112133094Y-87815057D02*
X112085475Y-87767438D01*
X112085475Y-87767438D02*
X111990237Y-87719819D01*
X111990237Y-87719819D02*
X111799761Y-87719819D01*
X111799761Y-87719819D02*
X111704523Y-87767438D01*
X111704523Y-87767438D02*
X111656904Y-87815057D01*
X111656904Y-87815057D02*
X111609285Y-87910295D01*
X111609285Y-87910295D02*
X111609285Y-87957914D01*
X111609285Y-87957914D02*
X111656904Y-88053152D01*
X111656904Y-88053152D02*
X111704523Y-88100771D01*
X111704523Y-88100771D02*
X111799761Y-88148390D01*
X111799761Y-88148390D02*
X111990237Y-88148390D01*
X111990237Y-88148390D02*
X112085475Y-88196009D01*
X112085475Y-88196009D02*
X112133094Y-88243628D01*
X112133094Y-88243628D02*
X112180713Y-88338866D01*
X112180713Y-88338866D02*
X112180713Y-88529342D01*
X112180713Y-88529342D02*
X112133094Y-88624580D01*
X112133094Y-88624580D02*
X112085475Y-88672200D01*
X112085475Y-88672200D02*
X111990237Y-88719819D01*
X111990237Y-88719819D02*
X111799761Y-88719819D01*
X111799761Y-88719819D02*
X111704523Y-88672200D01*
X111704523Y-88672200D02*
X111656904Y-88624580D01*
X111656904Y-88624580D02*
X111609285Y-88529342D01*
X111609285Y-88529342D02*
X111609285Y-88338866D01*
X111609285Y-88338866D02*
X111656904Y-88243628D01*
X111656904Y-88243628D02*
X111704523Y-88196009D01*
X111704523Y-88196009D02*
X111799761Y-88148390D01*
X112561666Y-77289819D02*
X112894999Y-76813628D01*
X113133094Y-77289819D02*
X113133094Y-76289819D01*
X113133094Y-76289819D02*
X112752142Y-76289819D01*
X112752142Y-76289819D02*
X112656904Y-76337438D01*
X112656904Y-76337438D02*
X112609285Y-76385057D01*
X112609285Y-76385057D02*
X112561666Y-76480295D01*
X112561666Y-76480295D02*
X112561666Y-76623152D01*
X112561666Y-76623152D02*
X112609285Y-76718390D01*
X112609285Y-76718390D02*
X112656904Y-76766009D01*
X112656904Y-76766009D02*
X112752142Y-76813628D01*
X112752142Y-76813628D02*
X113133094Y-76813628D01*
X112228332Y-76289819D02*
X111561666Y-76289819D01*
X111561666Y-76289819D02*
X111990237Y-77289819D01*
X112561666Y-68399819D02*
X112894999Y-67923628D01*
X113133094Y-68399819D02*
X113133094Y-67399819D01*
X113133094Y-67399819D02*
X112752142Y-67399819D01*
X112752142Y-67399819D02*
X112656904Y-67447438D01*
X112656904Y-67447438D02*
X112609285Y-67495057D01*
X112609285Y-67495057D02*
X112561666Y-67590295D01*
X112561666Y-67590295D02*
X112561666Y-67733152D01*
X112561666Y-67733152D02*
X112609285Y-67828390D01*
X112609285Y-67828390D02*
X112656904Y-67876009D01*
X112656904Y-67876009D02*
X112752142Y-67923628D01*
X112752142Y-67923628D02*
X113133094Y-67923628D01*
X111704523Y-67399819D02*
X111894999Y-67399819D01*
X111894999Y-67399819D02*
X111990237Y-67447438D01*
X111990237Y-67447438D02*
X112037856Y-67495057D01*
X112037856Y-67495057D02*
X112133094Y-67637914D01*
X112133094Y-67637914D02*
X112180713Y-67828390D01*
X112180713Y-67828390D02*
X112180713Y-68209342D01*
X112180713Y-68209342D02*
X112133094Y-68304580D01*
X112133094Y-68304580D02*
X112085475Y-68352200D01*
X112085475Y-68352200D02*
X111990237Y-68399819D01*
X111990237Y-68399819D02*
X111799761Y-68399819D01*
X111799761Y-68399819D02*
X111704523Y-68352200D01*
X111704523Y-68352200D02*
X111656904Y-68304580D01*
X111656904Y-68304580D02*
X111609285Y-68209342D01*
X111609285Y-68209342D02*
X111609285Y-67971247D01*
X111609285Y-67971247D02*
X111656904Y-67876009D01*
X111656904Y-67876009D02*
X111704523Y-67828390D01*
X111704523Y-67828390D02*
X111799761Y-67780771D01*
X111799761Y-67780771D02*
X111990237Y-67780771D01*
X111990237Y-67780771D02*
X112085475Y-67828390D01*
X112085475Y-67828390D02*
X112133094Y-67876009D01*
X112133094Y-67876009D02*
X112180713Y-67971247D01*
X112561666Y-59509819D02*
X112894999Y-59033628D01*
X113133094Y-59509819D02*
X113133094Y-58509819D01*
X113133094Y-58509819D02*
X112752142Y-58509819D01*
X112752142Y-58509819D02*
X112656904Y-58557438D01*
X112656904Y-58557438D02*
X112609285Y-58605057D01*
X112609285Y-58605057D02*
X112561666Y-58700295D01*
X112561666Y-58700295D02*
X112561666Y-58843152D01*
X112561666Y-58843152D02*
X112609285Y-58938390D01*
X112609285Y-58938390D02*
X112656904Y-58986009D01*
X112656904Y-58986009D02*
X112752142Y-59033628D01*
X112752142Y-59033628D02*
X113133094Y-59033628D01*
X111656904Y-58509819D02*
X112133094Y-58509819D01*
X112133094Y-58509819D02*
X112180713Y-58986009D01*
X112180713Y-58986009D02*
X112133094Y-58938390D01*
X112133094Y-58938390D02*
X112037856Y-58890771D01*
X112037856Y-58890771D02*
X111799761Y-58890771D01*
X111799761Y-58890771D02*
X111704523Y-58938390D01*
X111704523Y-58938390D02*
X111656904Y-58986009D01*
X111656904Y-58986009D02*
X111609285Y-59081247D01*
X111609285Y-59081247D02*
X111609285Y-59319342D01*
X111609285Y-59319342D02*
X111656904Y-59414580D01*
X111656904Y-59414580D02*
X111704523Y-59462200D01*
X111704523Y-59462200D02*
X111799761Y-59509819D01*
X111799761Y-59509819D02*
X112037856Y-59509819D01*
X112037856Y-59509819D02*
X112133094Y-59462200D01*
X112133094Y-59462200D02*
X112180713Y-59414580D01*
X117641666Y-86814819D02*
X117974999Y-86338628D01*
X118213094Y-86814819D02*
X118213094Y-85814819D01*
X118213094Y-85814819D02*
X117832142Y-85814819D01*
X117832142Y-85814819D02*
X117736904Y-85862438D01*
X117736904Y-85862438D02*
X117689285Y-85910057D01*
X117689285Y-85910057D02*
X117641666Y-86005295D01*
X117641666Y-86005295D02*
X117641666Y-86148152D01*
X117641666Y-86148152D02*
X117689285Y-86243390D01*
X117689285Y-86243390D02*
X117736904Y-86291009D01*
X117736904Y-86291009D02*
X117832142Y-86338628D01*
X117832142Y-86338628D02*
X118213094Y-86338628D01*
X116784523Y-86148152D02*
X116784523Y-86814819D01*
X117022618Y-85767200D02*
X117260713Y-86481485D01*
X117260713Y-86481485D02*
X116641666Y-86481485D01*
X117641666Y-75384819D02*
X117974999Y-74908628D01*
X118213094Y-75384819D02*
X118213094Y-74384819D01*
X118213094Y-74384819D02*
X117832142Y-74384819D01*
X117832142Y-74384819D02*
X117736904Y-74432438D01*
X117736904Y-74432438D02*
X117689285Y-74480057D01*
X117689285Y-74480057D02*
X117641666Y-74575295D01*
X117641666Y-74575295D02*
X117641666Y-74718152D01*
X117641666Y-74718152D02*
X117689285Y-74813390D01*
X117689285Y-74813390D02*
X117736904Y-74861009D01*
X117736904Y-74861009D02*
X117832142Y-74908628D01*
X117832142Y-74908628D02*
X118213094Y-74908628D01*
X117308332Y-74384819D02*
X116689285Y-74384819D01*
X116689285Y-74384819D02*
X117022618Y-74765771D01*
X117022618Y-74765771D02*
X116879761Y-74765771D01*
X116879761Y-74765771D02*
X116784523Y-74813390D01*
X116784523Y-74813390D02*
X116736904Y-74861009D01*
X116736904Y-74861009D02*
X116689285Y-74956247D01*
X116689285Y-74956247D02*
X116689285Y-75194342D01*
X116689285Y-75194342D02*
X116736904Y-75289580D01*
X116736904Y-75289580D02*
X116784523Y-75337200D01*
X116784523Y-75337200D02*
X116879761Y-75384819D01*
X116879761Y-75384819D02*
X117165475Y-75384819D01*
X117165475Y-75384819D02*
X117260713Y-75337200D01*
X117260713Y-75337200D02*
X117308332Y-75289580D01*
X117641666Y-66494819D02*
X117974999Y-66018628D01*
X118213094Y-66494819D02*
X118213094Y-65494819D01*
X118213094Y-65494819D02*
X117832142Y-65494819D01*
X117832142Y-65494819D02*
X117736904Y-65542438D01*
X117736904Y-65542438D02*
X117689285Y-65590057D01*
X117689285Y-65590057D02*
X117641666Y-65685295D01*
X117641666Y-65685295D02*
X117641666Y-65828152D01*
X117641666Y-65828152D02*
X117689285Y-65923390D01*
X117689285Y-65923390D02*
X117736904Y-65971009D01*
X117736904Y-65971009D02*
X117832142Y-66018628D01*
X117832142Y-66018628D02*
X118213094Y-66018628D01*
X117260713Y-65590057D02*
X117213094Y-65542438D01*
X117213094Y-65542438D02*
X117117856Y-65494819D01*
X117117856Y-65494819D02*
X116879761Y-65494819D01*
X116879761Y-65494819D02*
X116784523Y-65542438D01*
X116784523Y-65542438D02*
X116736904Y-65590057D01*
X116736904Y-65590057D02*
X116689285Y-65685295D01*
X116689285Y-65685295D02*
X116689285Y-65780533D01*
X116689285Y-65780533D02*
X116736904Y-65923390D01*
X116736904Y-65923390D02*
X117308332Y-66494819D01*
X117308332Y-66494819D02*
X116689285Y-66494819D01*
X117641666Y-57604819D02*
X117974999Y-57128628D01*
X118213094Y-57604819D02*
X118213094Y-56604819D01*
X118213094Y-56604819D02*
X117832142Y-56604819D01*
X117832142Y-56604819D02*
X117736904Y-56652438D01*
X117736904Y-56652438D02*
X117689285Y-56700057D01*
X117689285Y-56700057D02*
X117641666Y-56795295D01*
X117641666Y-56795295D02*
X117641666Y-56938152D01*
X117641666Y-56938152D02*
X117689285Y-57033390D01*
X117689285Y-57033390D02*
X117736904Y-57081009D01*
X117736904Y-57081009D02*
X117832142Y-57128628D01*
X117832142Y-57128628D02*
X118213094Y-57128628D01*
X116689285Y-57604819D02*
X117260713Y-57604819D01*
X116974999Y-57604819D02*
X116974999Y-56604819D01*
X116974999Y-56604819D02*
X117070237Y-56747676D01*
X117070237Y-56747676D02*
X117165475Y-56842914D01*
X117165475Y-56842914D02*
X117260713Y-56890533D01*
D12*
X125207500Y-84557776D02*
X125207500Y-85067224D01*
X126252500Y-84557776D02*
X126252500Y-85067224D01*
X125207500Y-73127776D02*
X125207500Y-73637224D01*
X126252500Y-73127776D02*
X126252500Y-73637224D01*
X125207500Y-64237776D02*
X125207500Y-64747224D01*
X126252500Y-64237776D02*
X126252500Y-64747224D01*
X125207500Y-55347776D02*
X125207500Y-55857224D01*
X126252500Y-55347776D02*
X126252500Y-55857224D01*
X115467224Y-87742500D02*
X114957776Y-87742500D01*
X115467224Y-88787500D02*
X114957776Y-88787500D01*
X115467224Y-76312500D02*
X114957776Y-76312500D01*
X115467224Y-77357500D02*
X114957776Y-77357500D01*
X115467224Y-67422500D02*
X114957776Y-67422500D01*
X115467224Y-68467500D02*
X114957776Y-68467500D01*
X115467224Y-58532500D02*
X114957776Y-58532500D01*
X115467224Y-59577500D02*
X114957776Y-59577500D01*
X119277224Y-87742500D02*
X118767776Y-87742500D01*
X119277224Y-88787500D02*
X118767776Y-88787500D01*
X119277224Y-76312500D02*
X118767776Y-76312500D01*
X119277224Y-77357500D02*
X118767776Y-77357500D01*
X119277224Y-67422500D02*
X118767776Y-67422500D01*
X119277224Y-68467500D02*
X118767776Y-68467500D01*
X119277224Y-58532500D02*
X118767776Y-58532500D01*
X119277224Y-59577500D02*
X118767776Y-59577500D01*
%LPC*%
D13*
X120090000Y-86015000D03*
X113590000Y-86015000D03*
X120090000Y-90515000D03*
X113590000Y-90515000D03*
X120090000Y-74585000D03*
X113590000Y-74585000D03*
X120090000Y-79085000D03*
X113590000Y-79085000D03*
X120090000Y-65695000D03*
X113590000Y-65695000D03*
X120090000Y-70195000D03*
X113590000Y-70195000D03*
X120090000Y-56805000D03*
X113590000Y-56805000D03*
X120090000Y-61305000D03*
X113590000Y-61305000D03*
D14*
X125730000Y-83900000D03*
X125730000Y-85725000D03*
X125730000Y-72470000D03*
X125730000Y-74295000D03*
X125730000Y-63580000D03*
X125730000Y-65405000D03*
X125730000Y-54690000D03*
X125730000Y-56515000D03*
D15*
X116125000Y-88265000D03*
X114300000Y-88265000D03*
X116125000Y-76835000D03*
X114300000Y-76835000D03*
X116125000Y-67945000D03*
X114300000Y-67945000D03*
X116125000Y-59055000D03*
X114300000Y-59055000D03*
X119935000Y-88265000D03*
X118110000Y-88265000D03*
X119935000Y-76835000D03*
X118110000Y-76835000D03*
X119935000Y-67945000D03*
X118110000Y-67945000D03*
X119935000Y-59055000D03*
X118110000Y-59055000D03*
D16*
X127000000Y-50800000D03*
D17*
X127000000Y-48260000D03*
X124460000Y-50800000D03*
X124460000Y-48260000D03*
X121920000Y-50800000D03*
X121920000Y-48260000D03*
X119380000Y-50800000D03*
X119380000Y-48260000D03*
X116840000Y-50800000D03*
X116840000Y-48260000D03*
X114300000Y-50800000D03*
X114300000Y-48260000D03*
D18*
X127000000Y-95885000D03*
X114300000Y-95885000D03*
D19*
X128270000Y-88265000D03*
D20*
X125730000Y-88265000D03*
D19*
X128270000Y-76835000D03*
D20*
X125730000Y-76835000D03*
D19*
X128270000Y-67945000D03*
D20*
X125730000Y-67945000D03*
X125730000Y-59055000D03*
D19*
X128270000Y-59055000D03*
%LPD*%
M02*
