G04 #@! TF.GenerationSoftware,KiCad,Pcbnew,7.0.11-7.0.11~ubuntu20.04.1*
G04 #@! TF.CreationDate,2024-08-22T00:47:31+02:00*
G04 #@! TF.ProjectId,kicad-pmod-semaphore,6b696361-642d-4706-9d6f-642d73656d61,1.0*
G04 #@! TF.SameCoordinates,Original*
G04 #@! TF.FileFunction,Legend,Top*
G04 #@! TF.FilePolarity,Positive*
%FSLAX46Y46*%
G04 Gerber Fmt 4.6, Leading zero omitted, Abs format (unit mm)*
G04 Created by KiCad (PCBNEW 7.0.11-7.0.11~ubuntu20.04.1) date 2024-08-22 00:47:31*
%MOMM*%
%LPD*%
G01*
G04 APERTURE LIST*
%ADD10C,0.200000*%
%ADD11C,0.125000*%
%ADD12C,0.150000*%
%ADD13C,0.120000*%
%ADD14C,2.000000*%
%ADD15R,1.700000X1.700000*%
%ADD16O,1.700000X1.700000*%
%ADD17C,2.500000*%
%ADD18R,1.800000X1.800000*%
%ADD19C,1.800000*%
G04 APERTURE END LIST*
D10*
X118364286Y-96974600D02*
X118507143Y-97022219D01*
X118507143Y-97022219D02*
X118745238Y-97022219D01*
X118745238Y-97022219D02*
X118840476Y-96974600D01*
X118840476Y-96974600D02*
X118888095Y-96926980D01*
X118888095Y-96926980D02*
X118935714Y-96831742D01*
X118935714Y-96831742D02*
X118935714Y-96736504D01*
X118935714Y-96736504D02*
X118888095Y-96641266D01*
X118888095Y-96641266D02*
X118840476Y-96593647D01*
X118840476Y-96593647D02*
X118745238Y-96546028D01*
X118745238Y-96546028D02*
X118554762Y-96498409D01*
X118554762Y-96498409D02*
X118459524Y-96450790D01*
X118459524Y-96450790D02*
X118411905Y-96403171D01*
X118411905Y-96403171D02*
X118364286Y-96307933D01*
X118364286Y-96307933D02*
X118364286Y-96212695D01*
X118364286Y-96212695D02*
X118411905Y-96117457D01*
X118411905Y-96117457D02*
X118459524Y-96069838D01*
X118459524Y-96069838D02*
X118554762Y-96022219D01*
X118554762Y-96022219D02*
X118792857Y-96022219D01*
X118792857Y-96022219D02*
X118935714Y-96069838D01*
X119840476Y-96022219D02*
X119364286Y-96022219D01*
X119364286Y-96022219D02*
X119316667Y-96498409D01*
X119316667Y-96498409D02*
X119364286Y-96450790D01*
X119364286Y-96450790D02*
X119459524Y-96403171D01*
X119459524Y-96403171D02*
X119697619Y-96403171D01*
X119697619Y-96403171D02*
X119792857Y-96450790D01*
X119792857Y-96450790D02*
X119840476Y-96498409D01*
X119840476Y-96498409D02*
X119888095Y-96593647D01*
X119888095Y-96593647D02*
X119888095Y-96831742D01*
X119888095Y-96831742D02*
X119840476Y-96926980D01*
X119840476Y-96926980D02*
X119792857Y-96974600D01*
X119792857Y-96974600D02*
X119697619Y-97022219D01*
X119697619Y-97022219D02*
X119459524Y-97022219D01*
X119459524Y-97022219D02*
X119364286Y-96974600D01*
X119364286Y-96974600D02*
X119316667Y-96926980D01*
X120364286Y-97022219D02*
X120554762Y-97022219D01*
X120554762Y-97022219D02*
X120650000Y-96974600D01*
X120650000Y-96974600D02*
X120697619Y-96926980D01*
X120697619Y-96926980D02*
X120792857Y-96784123D01*
X120792857Y-96784123D02*
X120840476Y-96593647D01*
X120840476Y-96593647D02*
X120840476Y-96212695D01*
X120840476Y-96212695D02*
X120792857Y-96117457D01*
X120792857Y-96117457D02*
X120745238Y-96069838D01*
X120745238Y-96069838D02*
X120650000Y-96022219D01*
X120650000Y-96022219D02*
X120459524Y-96022219D01*
X120459524Y-96022219D02*
X120364286Y-96069838D01*
X120364286Y-96069838D02*
X120316667Y-96117457D01*
X120316667Y-96117457D02*
X120269048Y-96212695D01*
X120269048Y-96212695D02*
X120269048Y-96450790D01*
X120269048Y-96450790D02*
X120316667Y-96546028D01*
X120316667Y-96546028D02*
X120364286Y-96593647D01*
X120364286Y-96593647D02*
X120459524Y-96641266D01*
X120459524Y-96641266D02*
X120650000Y-96641266D01*
X120650000Y-96641266D02*
X120745238Y-96593647D01*
X120745238Y-96593647D02*
X120792857Y-96546028D01*
X120792857Y-96546028D02*
X120840476Y-96450790D01*
X121269048Y-97022219D02*
X121269048Y-96022219D01*
X121269048Y-96022219D02*
X121602381Y-96736504D01*
X121602381Y-96736504D02*
X121935714Y-96022219D01*
X121935714Y-96022219D02*
X121935714Y-97022219D01*
X122316667Y-96022219D02*
X122983333Y-96022219D01*
X122983333Y-96022219D02*
X122316667Y-97022219D01*
X122316667Y-97022219D02*
X122983333Y-97022219D01*
D11*
X115842712Y-98955595D02*
X115842712Y-98155595D01*
X115842712Y-98155595D02*
X116147474Y-98155595D01*
X116147474Y-98155595D02*
X116223664Y-98193690D01*
X116223664Y-98193690D02*
X116261759Y-98231785D01*
X116261759Y-98231785D02*
X116299855Y-98307976D01*
X116299855Y-98307976D02*
X116299855Y-98422261D01*
X116299855Y-98422261D02*
X116261759Y-98498452D01*
X116261759Y-98498452D02*
X116223664Y-98536547D01*
X116223664Y-98536547D02*
X116147474Y-98574642D01*
X116147474Y-98574642D02*
X115842712Y-98574642D01*
X116642712Y-98955595D02*
X116642712Y-98155595D01*
X116642712Y-98155595D02*
X116909378Y-98727023D01*
X116909378Y-98727023D02*
X117176045Y-98155595D01*
X117176045Y-98155595D02*
X117176045Y-98955595D01*
X117709379Y-98155595D02*
X117861760Y-98155595D01*
X117861760Y-98155595D02*
X117937950Y-98193690D01*
X117937950Y-98193690D02*
X118014141Y-98269880D01*
X118014141Y-98269880D02*
X118052236Y-98422261D01*
X118052236Y-98422261D02*
X118052236Y-98688928D01*
X118052236Y-98688928D02*
X118014141Y-98841309D01*
X118014141Y-98841309D02*
X117937950Y-98917500D01*
X117937950Y-98917500D02*
X117861760Y-98955595D01*
X117861760Y-98955595D02*
X117709379Y-98955595D01*
X117709379Y-98955595D02*
X117633188Y-98917500D01*
X117633188Y-98917500D02*
X117556998Y-98841309D01*
X117556998Y-98841309D02*
X117518902Y-98688928D01*
X117518902Y-98688928D02*
X117518902Y-98422261D01*
X117518902Y-98422261D02*
X117556998Y-98269880D01*
X117556998Y-98269880D02*
X117633188Y-98193690D01*
X117633188Y-98193690D02*
X117709379Y-98155595D01*
X118395093Y-98955595D02*
X118395093Y-98155595D01*
X118395093Y-98155595D02*
X118585569Y-98155595D01*
X118585569Y-98155595D02*
X118699855Y-98193690D01*
X118699855Y-98193690D02*
X118776045Y-98269880D01*
X118776045Y-98269880D02*
X118814140Y-98346071D01*
X118814140Y-98346071D02*
X118852236Y-98498452D01*
X118852236Y-98498452D02*
X118852236Y-98612738D01*
X118852236Y-98612738D02*
X118814140Y-98765119D01*
X118814140Y-98765119D02*
X118776045Y-98841309D01*
X118776045Y-98841309D02*
X118699855Y-98917500D01*
X118699855Y-98917500D02*
X118585569Y-98955595D01*
X118585569Y-98955595D02*
X118395093Y-98955595D01*
X119195093Y-98650833D02*
X119804617Y-98650833D01*
X120147473Y-98917500D02*
X120261759Y-98955595D01*
X120261759Y-98955595D02*
X120452235Y-98955595D01*
X120452235Y-98955595D02*
X120528426Y-98917500D01*
X120528426Y-98917500D02*
X120566521Y-98879404D01*
X120566521Y-98879404D02*
X120604616Y-98803214D01*
X120604616Y-98803214D02*
X120604616Y-98727023D01*
X120604616Y-98727023D02*
X120566521Y-98650833D01*
X120566521Y-98650833D02*
X120528426Y-98612738D01*
X120528426Y-98612738D02*
X120452235Y-98574642D01*
X120452235Y-98574642D02*
X120299854Y-98536547D01*
X120299854Y-98536547D02*
X120223664Y-98498452D01*
X120223664Y-98498452D02*
X120185569Y-98460357D01*
X120185569Y-98460357D02*
X120147473Y-98384166D01*
X120147473Y-98384166D02*
X120147473Y-98307976D01*
X120147473Y-98307976D02*
X120185569Y-98231785D01*
X120185569Y-98231785D02*
X120223664Y-98193690D01*
X120223664Y-98193690D02*
X120299854Y-98155595D01*
X120299854Y-98155595D02*
X120490331Y-98155595D01*
X120490331Y-98155595D02*
X120604616Y-98193690D01*
X121252236Y-98917500D02*
X121176045Y-98955595D01*
X121176045Y-98955595D02*
X121023664Y-98955595D01*
X121023664Y-98955595D02*
X120947474Y-98917500D01*
X120947474Y-98917500D02*
X120909378Y-98841309D01*
X120909378Y-98841309D02*
X120909378Y-98536547D01*
X120909378Y-98536547D02*
X120947474Y-98460357D01*
X120947474Y-98460357D02*
X121023664Y-98422261D01*
X121023664Y-98422261D02*
X121176045Y-98422261D01*
X121176045Y-98422261D02*
X121252236Y-98460357D01*
X121252236Y-98460357D02*
X121290331Y-98536547D01*
X121290331Y-98536547D02*
X121290331Y-98612738D01*
X121290331Y-98612738D02*
X120909378Y-98688928D01*
X121633188Y-98955595D02*
X121633188Y-98422261D01*
X121633188Y-98498452D02*
X121671283Y-98460357D01*
X121671283Y-98460357D02*
X121747473Y-98422261D01*
X121747473Y-98422261D02*
X121861759Y-98422261D01*
X121861759Y-98422261D02*
X121937950Y-98460357D01*
X121937950Y-98460357D02*
X121976045Y-98536547D01*
X121976045Y-98536547D02*
X121976045Y-98955595D01*
X121976045Y-98536547D02*
X122014140Y-98460357D01*
X122014140Y-98460357D02*
X122090331Y-98422261D01*
X122090331Y-98422261D02*
X122204616Y-98422261D01*
X122204616Y-98422261D02*
X122280807Y-98460357D01*
X122280807Y-98460357D02*
X122318902Y-98536547D01*
X122318902Y-98536547D02*
X122318902Y-98955595D01*
X123042712Y-98955595D02*
X123042712Y-98536547D01*
X123042712Y-98536547D02*
X123004617Y-98460357D01*
X123004617Y-98460357D02*
X122928426Y-98422261D01*
X122928426Y-98422261D02*
X122776045Y-98422261D01*
X122776045Y-98422261D02*
X122699855Y-98460357D01*
X123042712Y-98917500D02*
X122966521Y-98955595D01*
X122966521Y-98955595D02*
X122776045Y-98955595D01*
X122776045Y-98955595D02*
X122699855Y-98917500D01*
X122699855Y-98917500D02*
X122661759Y-98841309D01*
X122661759Y-98841309D02*
X122661759Y-98765119D01*
X122661759Y-98765119D02*
X122699855Y-98688928D01*
X122699855Y-98688928D02*
X122776045Y-98650833D01*
X122776045Y-98650833D02*
X122966521Y-98650833D01*
X122966521Y-98650833D02*
X123042712Y-98612738D01*
X123423665Y-98422261D02*
X123423665Y-99222261D01*
X123423665Y-98460357D02*
X123499855Y-98422261D01*
X123499855Y-98422261D02*
X123652236Y-98422261D01*
X123652236Y-98422261D02*
X123728427Y-98460357D01*
X123728427Y-98460357D02*
X123766522Y-98498452D01*
X123766522Y-98498452D02*
X123804617Y-98574642D01*
X123804617Y-98574642D02*
X123804617Y-98803214D01*
X123804617Y-98803214D02*
X123766522Y-98879404D01*
X123766522Y-98879404D02*
X123728427Y-98917500D01*
X123728427Y-98917500D02*
X123652236Y-98955595D01*
X123652236Y-98955595D02*
X123499855Y-98955595D01*
X123499855Y-98955595D02*
X123423665Y-98917500D01*
X124147475Y-98955595D02*
X124147475Y-98155595D01*
X124490332Y-98955595D02*
X124490332Y-98536547D01*
X124490332Y-98536547D02*
X124452237Y-98460357D01*
X124452237Y-98460357D02*
X124376046Y-98422261D01*
X124376046Y-98422261D02*
X124261760Y-98422261D01*
X124261760Y-98422261D02*
X124185570Y-98460357D01*
X124185570Y-98460357D02*
X124147475Y-98498452D01*
X124985570Y-98955595D02*
X124909380Y-98917500D01*
X124909380Y-98917500D02*
X124871285Y-98879404D01*
X124871285Y-98879404D02*
X124833189Y-98803214D01*
X124833189Y-98803214D02*
X124833189Y-98574642D01*
X124833189Y-98574642D02*
X124871285Y-98498452D01*
X124871285Y-98498452D02*
X124909380Y-98460357D01*
X124909380Y-98460357D02*
X124985570Y-98422261D01*
X124985570Y-98422261D02*
X125099856Y-98422261D01*
X125099856Y-98422261D02*
X125176047Y-98460357D01*
X125176047Y-98460357D02*
X125214142Y-98498452D01*
X125214142Y-98498452D02*
X125252237Y-98574642D01*
X125252237Y-98574642D02*
X125252237Y-98803214D01*
X125252237Y-98803214D02*
X125214142Y-98879404D01*
X125214142Y-98879404D02*
X125176047Y-98917500D01*
X125176047Y-98917500D02*
X125099856Y-98955595D01*
X125099856Y-98955595D02*
X124985570Y-98955595D01*
X125595095Y-98955595D02*
X125595095Y-98422261D01*
X125595095Y-98574642D02*
X125633190Y-98498452D01*
X125633190Y-98498452D02*
X125671285Y-98460357D01*
X125671285Y-98460357D02*
X125747476Y-98422261D01*
X125747476Y-98422261D02*
X125823666Y-98422261D01*
X126395095Y-98917500D02*
X126318904Y-98955595D01*
X126318904Y-98955595D02*
X126166523Y-98955595D01*
X126166523Y-98955595D02*
X126090333Y-98917500D01*
X126090333Y-98917500D02*
X126052237Y-98841309D01*
X126052237Y-98841309D02*
X126052237Y-98536547D01*
X126052237Y-98536547D02*
X126090333Y-98460357D01*
X126090333Y-98460357D02*
X126166523Y-98422261D01*
X126166523Y-98422261D02*
X126318904Y-98422261D01*
X126318904Y-98422261D02*
X126395095Y-98460357D01*
X126395095Y-98460357D02*
X126433190Y-98536547D01*
X126433190Y-98536547D02*
X126433190Y-98612738D01*
X126433190Y-98612738D02*
X126052237Y-98688928D01*
D12*
X112167200Y-89598332D02*
X112214819Y-89455475D01*
X112214819Y-89455475D02*
X112214819Y-89217380D01*
X112214819Y-89217380D02*
X112167200Y-89122142D01*
X112167200Y-89122142D02*
X112119580Y-89074523D01*
X112119580Y-89074523D02*
X112024342Y-89026904D01*
X112024342Y-89026904D02*
X111929104Y-89026904D01*
X111929104Y-89026904D02*
X111833866Y-89074523D01*
X111833866Y-89074523D02*
X111786247Y-89122142D01*
X111786247Y-89122142D02*
X111738628Y-89217380D01*
X111738628Y-89217380D02*
X111691009Y-89407856D01*
X111691009Y-89407856D02*
X111643390Y-89503094D01*
X111643390Y-89503094D02*
X111595771Y-89550713D01*
X111595771Y-89550713D02*
X111500533Y-89598332D01*
X111500533Y-89598332D02*
X111405295Y-89598332D01*
X111405295Y-89598332D02*
X111310057Y-89550713D01*
X111310057Y-89550713D02*
X111262438Y-89503094D01*
X111262438Y-89503094D02*
X111214819Y-89407856D01*
X111214819Y-89407856D02*
X111214819Y-89169761D01*
X111214819Y-89169761D02*
X111262438Y-89026904D01*
X111214819Y-88693570D02*
X112214819Y-88455475D01*
X112214819Y-88455475D02*
X111500533Y-88264999D01*
X111500533Y-88264999D02*
X112214819Y-88074523D01*
X112214819Y-88074523D02*
X111214819Y-87836428D01*
X111548152Y-87026904D02*
X112214819Y-87026904D01*
X111167200Y-87264999D02*
X111881485Y-87503094D01*
X111881485Y-87503094D02*
X111881485Y-86884047D01*
X112167200Y-78168332D02*
X112214819Y-78025475D01*
X112214819Y-78025475D02*
X112214819Y-77787380D01*
X112214819Y-77787380D02*
X112167200Y-77692142D01*
X112167200Y-77692142D02*
X112119580Y-77644523D01*
X112119580Y-77644523D02*
X112024342Y-77596904D01*
X112024342Y-77596904D02*
X111929104Y-77596904D01*
X111929104Y-77596904D02*
X111833866Y-77644523D01*
X111833866Y-77644523D02*
X111786247Y-77692142D01*
X111786247Y-77692142D02*
X111738628Y-77787380D01*
X111738628Y-77787380D02*
X111691009Y-77977856D01*
X111691009Y-77977856D02*
X111643390Y-78073094D01*
X111643390Y-78073094D02*
X111595771Y-78120713D01*
X111595771Y-78120713D02*
X111500533Y-78168332D01*
X111500533Y-78168332D02*
X111405295Y-78168332D01*
X111405295Y-78168332D02*
X111310057Y-78120713D01*
X111310057Y-78120713D02*
X111262438Y-78073094D01*
X111262438Y-78073094D02*
X111214819Y-77977856D01*
X111214819Y-77977856D02*
X111214819Y-77739761D01*
X111214819Y-77739761D02*
X111262438Y-77596904D01*
X111214819Y-77263570D02*
X112214819Y-77025475D01*
X112214819Y-77025475D02*
X111500533Y-76834999D01*
X111500533Y-76834999D02*
X112214819Y-76644523D01*
X112214819Y-76644523D02*
X111214819Y-76406428D01*
X111214819Y-76120713D02*
X111214819Y-75501666D01*
X111214819Y-75501666D02*
X111595771Y-75834999D01*
X111595771Y-75834999D02*
X111595771Y-75692142D01*
X111595771Y-75692142D02*
X111643390Y-75596904D01*
X111643390Y-75596904D02*
X111691009Y-75549285D01*
X111691009Y-75549285D02*
X111786247Y-75501666D01*
X111786247Y-75501666D02*
X112024342Y-75501666D01*
X112024342Y-75501666D02*
X112119580Y-75549285D01*
X112119580Y-75549285D02*
X112167200Y-75596904D01*
X112167200Y-75596904D02*
X112214819Y-75692142D01*
X112214819Y-75692142D02*
X112214819Y-75977856D01*
X112214819Y-75977856D02*
X112167200Y-76073094D01*
X112167200Y-76073094D02*
X112119580Y-76120713D01*
X112167200Y-69278332D02*
X112214819Y-69135475D01*
X112214819Y-69135475D02*
X112214819Y-68897380D01*
X112214819Y-68897380D02*
X112167200Y-68802142D01*
X112167200Y-68802142D02*
X112119580Y-68754523D01*
X112119580Y-68754523D02*
X112024342Y-68706904D01*
X112024342Y-68706904D02*
X111929104Y-68706904D01*
X111929104Y-68706904D02*
X111833866Y-68754523D01*
X111833866Y-68754523D02*
X111786247Y-68802142D01*
X111786247Y-68802142D02*
X111738628Y-68897380D01*
X111738628Y-68897380D02*
X111691009Y-69087856D01*
X111691009Y-69087856D02*
X111643390Y-69183094D01*
X111643390Y-69183094D02*
X111595771Y-69230713D01*
X111595771Y-69230713D02*
X111500533Y-69278332D01*
X111500533Y-69278332D02*
X111405295Y-69278332D01*
X111405295Y-69278332D02*
X111310057Y-69230713D01*
X111310057Y-69230713D02*
X111262438Y-69183094D01*
X111262438Y-69183094D02*
X111214819Y-69087856D01*
X111214819Y-69087856D02*
X111214819Y-68849761D01*
X111214819Y-68849761D02*
X111262438Y-68706904D01*
X111214819Y-68373570D02*
X112214819Y-68135475D01*
X112214819Y-68135475D02*
X111500533Y-67944999D01*
X111500533Y-67944999D02*
X112214819Y-67754523D01*
X112214819Y-67754523D02*
X111214819Y-67516428D01*
X111310057Y-67183094D02*
X111262438Y-67135475D01*
X111262438Y-67135475D02*
X111214819Y-67040237D01*
X111214819Y-67040237D02*
X111214819Y-66802142D01*
X111214819Y-66802142D02*
X111262438Y-66706904D01*
X111262438Y-66706904D02*
X111310057Y-66659285D01*
X111310057Y-66659285D02*
X111405295Y-66611666D01*
X111405295Y-66611666D02*
X111500533Y-66611666D01*
X111500533Y-66611666D02*
X111643390Y-66659285D01*
X111643390Y-66659285D02*
X112214819Y-67230713D01*
X112214819Y-67230713D02*
X112214819Y-66611666D01*
X112167200Y-60388332D02*
X112214819Y-60245475D01*
X112214819Y-60245475D02*
X112214819Y-60007380D01*
X112214819Y-60007380D02*
X112167200Y-59912142D01*
X112167200Y-59912142D02*
X112119580Y-59864523D01*
X112119580Y-59864523D02*
X112024342Y-59816904D01*
X112024342Y-59816904D02*
X111929104Y-59816904D01*
X111929104Y-59816904D02*
X111833866Y-59864523D01*
X111833866Y-59864523D02*
X111786247Y-59912142D01*
X111786247Y-59912142D02*
X111738628Y-60007380D01*
X111738628Y-60007380D02*
X111691009Y-60197856D01*
X111691009Y-60197856D02*
X111643390Y-60293094D01*
X111643390Y-60293094D02*
X111595771Y-60340713D01*
X111595771Y-60340713D02*
X111500533Y-60388332D01*
X111500533Y-60388332D02*
X111405295Y-60388332D01*
X111405295Y-60388332D02*
X111310057Y-60340713D01*
X111310057Y-60340713D02*
X111262438Y-60293094D01*
X111262438Y-60293094D02*
X111214819Y-60197856D01*
X111214819Y-60197856D02*
X111214819Y-59959761D01*
X111214819Y-59959761D02*
X111262438Y-59816904D01*
X111214819Y-59483570D02*
X112214819Y-59245475D01*
X112214819Y-59245475D02*
X111500533Y-59054999D01*
X111500533Y-59054999D02*
X112214819Y-58864523D01*
X112214819Y-58864523D02*
X111214819Y-58626428D01*
X112214819Y-57721666D02*
X112214819Y-58293094D01*
X112214819Y-58007380D02*
X111214819Y-58007380D01*
X111214819Y-58007380D02*
X111357676Y-58102618D01*
X111357676Y-58102618D02*
X111452914Y-58197856D01*
X111452914Y-58197856D02*
X111500533Y-58293094D01*
X111426666Y-48730819D02*
X111426666Y-49445104D01*
X111426666Y-49445104D02*
X111379047Y-49587961D01*
X111379047Y-49587961D02*
X111283809Y-49683200D01*
X111283809Y-49683200D02*
X111140952Y-49730819D01*
X111140952Y-49730819D02*
X111045714Y-49730819D01*
X112426666Y-49730819D02*
X111855238Y-49730819D01*
X112140952Y-49730819D02*
X112140952Y-48730819D01*
X112140952Y-48730819D02*
X112045714Y-48873676D01*
X112045714Y-48873676D02*
X111950476Y-48968914D01*
X111950476Y-48968914D02*
X111855238Y-49016533D01*
X123721905Y-92679819D02*
X123721905Y-91679819D01*
X123721905Y-91679819D02*
X123960000Y-91679819D01*
X123960000Y-91679819D02*
X124102857Y-91727438D01*
X124102857Y-91727438D02*
X124198095Y-91822676D01*
X124198095Y-91822676D02*
X124245714Y-91917914D01*
X124245714Y-91917914D02*
X124293333Y-92108390D01*
X124293333Y-92108390D02*
X124293333Y-92251247D01*
X124293333Y-92251247D02*
X124245714Y-92441723D01*
X124245714Y-92441723D02*
X124198095Y-92536961D01*
X124198095Y-92536961D02*
X124102857Y-92632200D01*
X124102857Y-92632200D02*
X123960000Y-92679819D01*
X123960000Y-92679819D02*
X123721905Y-92679819D01*
X125150476Y-92013152D02*
X125150476Y-92679819D01*
X124912381Y-91632200D02*
X124674286Y-92346485D01*
X124674286Y-92346485D02*
X125293333Y-92346485D01*
X123721905Y-81099819D02*
X123721905Y-80099819D01*
X123721905Y-80099819D02*
X123960000Y-80099819D01*
X123960000Y-80099819D02*
X124102857Y-80147438D01*
X124102857Y-80147438D02*
X124198095Y-80242676D01*
X124198095Y-80242676D02*
X124245714Y-80337914D01*
X124245714Y-80337914D02*
X124293333Y-80528390D01*
X124293333Y-80528390D02*
X124293333Y-80671247D01*
X124293333Y-80671247D02*
X124245714Y-80861723D01*
X124245714Y-80861723D02*
X124198095Y-80956961D01*
X124198095Y-80956961D02*
X124102857Y-81052200D01*
X124102857Y-81052200D02*
X123960000Y-81099819D01*
X123960000Y-81099819D02*
X123721905Y-81099819D01*
X124626667Y-80099819D02*
X125245714Y-80099819D01*
X125245714Y-80099819D02*
X124912381Y-80480771D01*
X124912381Y-80480771D02*
X125055238Y-80480771D01*
X125055238Y-80480771D02*
X125150476Y-80528390D01*
X125150476Y-80528390D02*
X125198095Y-80576009D01*
X125198095Y-80576009D02*
X125245714Y-80671247D01*
X125245714Y-80671247D02*
X125245714Y-80909342D01*
X125245714Y-80909342D02*
X125198095Y-81004580D01*
X125198095Y-81004580D02*
X125150476Y-81052200D01*
X125150476Y-81052200D02*
X125055238Y-81099819D01*
X125055238Y-81099819D02*
X124769524Y-81099819D01*
X124769524Y-81099819D02*
X124674286Y-81052200D01*
X124674286Y-81052200D02*
X124626667Y-81004580D01*
X123721905Y-72209819D02*
X123721905Y-71209819D01*
X123721905Y-71209819D02*
X123960000Y-71209819D01*
X123960000Y-71209819D02*
X124102857Y-71257438D01*
X124102857Y-71257438D02*
X124198095Y-71352676D01*
X124198095Y-71352676D02*
X124245714Y-71447914D01*
X124245714Y-71447914D02*
X124293333Y-71638390D01*
X124293333Y-71638390D02*
X124293333Y-71781247D01*
X124293333Y-71781247D02*
X124245714Y-71971723D01*
X124245714Y-71971723D02*
X124198095Y-72066961D01*
X124198095Y-72066961D02*
X124102857Y-72162200D01*
X124102857Y-72162200D02*
X123960000Y-72209819D01*
X123960000Y-72209819D02*
X123721905Y-72209819D01*
X124674286Y-71305057D02*
X124721905Y-71257438D01*
X124721905Y-71257438D02*
X124817143Y-71209819D01*
X124817143Y-71209819D02*
X125055238Y-71209819D01*
X125055238Y-71209819D02*
X125150476Y-71257438D01*
X125150476Y-71257438D02*
X125198095Y-71305057D01*
X125198095Y-71305057D02*
X125245714Y-71400295D01*
X125245714Y-71400295D02*
X125245714Y-71495533D01*
X125245714Y-71495533D02*
X125198095Y-71638390D01*
X125198095Y-71638390D02*
X124626667Y-72209819D01*
X124626667Y-72209819D02*
X125245714Y-72209819D01*
X123721905Y-63319819D02*
X123721905Y-62319819D01*
X123721905Y-62319819D02*
X123960000Y-62319819D01*
X123960000Y-62319819D02*
X124102857Y-62367438D01*
X124102857Y-62367438D02*
X124198095Y-62462676D01*
X124198095Y-62462676D02*
X124245714Y-62557914D01*
X124245714Y-62557914D02*
X124293333Y-62748390D01*
X124293333Y-62748390D02*
X124293333Y-62891247D01*
X124293333Y-62891247D02*
X124245714Y-63081723D01*
X124245714Y-63081723D02*
X124198095Y-63176961D01*
X124198095Y-63176961D02*
X124102857Y-63272200D01*
X124102857Y-63272200D02*
X123960000Y-63319819D01*
X123960000Y-63319819D02*
X123721905Y-63319819D01*
X125245714Y-63319819D02*
X124674286Y-63319819D01*
X124960000Y-63319819D02*
X124960000Y-62319819D01*
X124960000Y-62319819D02*
X124864762Y-62462676D01*
X124864762Y-62462676D02*
X124769524Y-62557914D01*
X124769524Y-62557914D02*
X124674286Y-62605533D01*
D13*
X120340000Y-89015000D02*
X120340000Y-87515000D01*
X119090000Y-85015000D02*
X114590000Y-85015000D01*
X113340000Y-87515000D02*
X113340000Y-89015000D01*
X114590000Y-91515000D02*
X119090000Y-91515000D01*
X120340000Y-77585000D02*
X120340000Y-76085000D01*
X119090000Y-73585000D02*
X114590000Y-73585000D01*
X113340000Y-76085000D02*
X113340000Y-77585000D01*
X114590000Y-80085000D02*
X119090000Y-80085000D01*
X120340000Y-68695000D02*
X120340000Y-67195000D01*
X119090000Y-64695000D02*
X114590000Y-64695000D01*
X113340000Y-67195000D02*
X113340000Y-68695000D01*
X114590000Y-71195000D02*
X119090000Y-71195000D01*
X120340000Y-59805000D02*
X120340000Y-58305000D01*
X119090000Y-55805000D02*
X114590000Y-55805000D01*
X113340000Y-58305000D02*
X113340000Y-59805000D01*
X114590000Y-62305000D02*
X119090000Y-62305000D01*
X128270000Y-52070000D02*
X127000000Y-52070000D01*
X128270000Y-52070000D02*
X128270000Y-50800000D01*
X116460000Y-49757071D02*
X116460000Y-49302929D01*
X117220000Y-49757071D02*
X117220000Y-49302929D01*
X119000000Y-49757071D02*
X119000000Y-49302929D01*
X119760000Y-49757071D02*
X119760000Y-49302929D01*
X121540000Y-49757071D02*
X121540000Y-49302929D01*
X122300000Y-49757071D02*
X122300000Y-49302929D01*
X124080000Y-49757071D02*
X124080000Y-49302929D01*
X124840000Y-49757071D02*
X124840000Y-49302929D01*
X126620000Y-49757071D02*
X126620000Y-49302929D01*
X127380000Y-49757071D02*
X127380000Y-49302929D01*
X113920000Y-49690000D02*
X113920000Y-49302929D01*
X114680000Y-49690000D02*
X114680000Y-49302929D01*
X113920000Y-47217071D02*
X113920000Y-46820000D01*
X114680000Y-47217071D02*
X114680000Y-46820000D01*
X116460000Y-47217071D02*
X116460000Y-46820000D01*
X117220000Y-47217071D02*
X117220000Y-46820000D01*
X119000000Y-47217071D02*
X119000000Y-46820000D01*
X119760000Y-47217071D02*
X119760000Y-46820000D01*
X121540000Y-47217071D02*
X121540000Y-46820000D01*
X122300000Y-47217071D02*
X122300000Y-46820000D01*
X124080000Y-47217071D02*
X124080000Y-46820000D01*
X124840000Y-47217071D02*
X124840000Y-46820000D01*
X126620000Y-47217071D02*
X126620000Y-46820000D01*
X127380000Y-47217071D02*
X127380000Y-46820000D01*
X112970000Y-46820000D02*
X128330000Y-46820000D01*
X115570000Y-46820000D02*
X115570000Y-44704000D01*
X118110000Y-46820000D02*
X118110000Y-44704000D01*
X120650000Y-46820000D02*
X120650000Y-44704000D01*
X123190000Y-46820000D02*
X123190000Y-44704000D01*
X125730000Y-46820000D02*
X125730000Y-44704000D01*
X128330000Y-46820000D02*
X128330000Y-44704000D01*
X112970000Y-44704000D02*
X112970000Y-46820000D01*
X128330000Y-44704000D02*
X112970000Y-44704000D01*
X129560000Y-89810000D02*
X129560000Y-86720000D01*
X124010001Y-88264538D02*
G75*
G03*
X129559999Y-89809830I2989999J-462D01*
G01*
X129560000Y-86720170D02*
G75*
G03*
X124010000Y-88265462I-2560000J-1544830D01*
G01*
X129500000Y-88265000D02*
G75*
G03*
X124500000Y-88265000I-2500000J0D01*
G01*
X124500000Y-88265000D02*
G75*
G03*
X129500000Y-88265000I2500000J0D01*
G01*
X129560000Y-78380000D02*
X129560000Y-75290000D01*
X129560000Y-75290170D02*
G75*
G03*
X124010000Y-76835462I-2560000J-1544830D01*
G01*
X124010001Y-76834538D02*
G75*
G03*
X129559999Y-78379830I2989999J-462D01*
G01*
X129500000Y-76835000D02*
G75*
G03*
X124500000Y-76835000I-2500000J0D01*
G01*
X124500000Y-76835000D02*
G75*
G03*
X129500000Y-76835000I2500000J0D01*
G01*
X129560000Y-69490000D02*
X129560000Y-66400000D01*
X129560000Y-66400170D02*
G75*
G03*
X124010000Y-67945462I-2560000J-1544830D01*
G01*
X124010001Y-67944538D02*
G75*
G03*
X129559999Y-69489830I2989999J-462D01*
G01*
X129500000Y-67945000D02*
G75*
G03*
X124500000Y-67945000I-2500000J0D01*
G01*
X124500000Y-67945000D02*
G75*
G03*
X129500000Y-67945000I2500000J0D01*
G01*
X129500000Y-59055000D02*
G75*
G03*
X124500000Y-59055000I-2500000J0D01*
G01*
X124500000Y-59055000D02*
G75*
G03*
X129500000Y-59055000I2500000J0D01*
G01*
X124010001Y-59054538D02*
G75*
G03*
X129559999Y-60599830I2989999J-462D01*
G01*
X129560000Y-57510170D02*
G75*
G03*
X124010000Y-59055462I-2560000J-1544830D01*
G01*
X129560000Y-60600000D02*
X129560000Y-57510000D01*
%LPC*%
D14*
X120090000Y-86015000D03*
X113590000Y-86015000D03*
X120090000Y-90515000D03*
X113590000Y-90515000D03*
X120090000Y-74585000D03*
X113590000Y-74585000D03*
X120090000Y-79085000D03*
X113590000Y-79085000D03*
X120090000Y-65695000D03*
X113590000Y-65695000D03*
X120090000Y-70195000D03*
X113590000Y-70195000D03*
X120090000Y-56805000D03*
X113590000Y-56805000D03*
X120090000Y-61305000D03*
X113590000Y-61305000D03*
D15*
X127000000Y-50800000D03*
D16*
X127000000Y-48260000D03*
X124460000Y-50800000D03*
X124460000Y-48260000D03*
X121920000Y-50800000D03*
X121920000Y-48260000D03*
X119380000Y-50800000D03*
X119380000Y-48260000D03*
X116840000Y-50800000D03*
X116840000Y-48260000D03*
X114300000Y-50800000D03*
X114300000Y-48260000D03*
D17*
X127000000Y-95885000D03*
X114300000Y-95885000D03*
D18*
X128270000Y-88265000D03*
D19*
X125730000Y-88265000D03*
D18*
X128270000Y-76835000D03*
D19*
X125730000Y-76835000D03*
D18*
X128270000Y-67945000D03*
D19*
X125730000Y-67945000D03*
X125730000Y-59055000D03*
D18*
X128270000Y-59055000D03*
%LPD*%
M02*
